<svg width="518" height="345" viewBox="0 0 518 345" fill="none" opacity="0.4" xmlns="http://www.w3.org/2000/svg">
<rect x="40.5881" y="40.5881" width="10.1471" height="10.1471" fill="#D7C8A6"/>
<rect x="50.7354" y="30.4412" width="10.1471" height="10.1471" fill="#D7C8A6"/>
<rect x="71.0295" y="30.4412" width="10.1471" height="10.1471" fill="#D7C8A6"/>
<rect x="81.1765" y="20.2942" width="10.1471" height="10.1471" fill="#D7C8A6"/>
<rect x="91.3235" y="10.147" width="10.1471" height="10.1471" fill="#D7C8A6"/>
<rect x="71.0295" y="40.5881" width="10.1471" height="10.1471" fill="#737119"/>
<rect x="81.1765" y="30.4412" width="10.1471" height="10.1471" fill="#D7C8A6"/>
<rect x="111.618" y="40.5881" width="10.1471" height="10.1471" fill="#D7C8A6"/>
<rect x="142.059" y="40.5881" width="10.1471" height="10.1471" fill="#D7C8A6"/>
<rect x="202.941" y="40.5881" width="10.1471" height="10.1471" fill="#D7C8A6"/>
<rect x="192.794" y="30.4412" width="10.1471" height="10.1471" fill="#D7C8A6"/>
<rect x="81.1765" y="40.5881" width="10.1471" height="10.1471" fill="#737119"/>
<rect x="81.1765" y="10.147" width="10.1471" height="10.1471" fill="#737119"/>
<rect x="60.8823" y="20.2942" width="10.1471" height="10.1471" fill="#737119"/>
<rect x="40.5881" y="30.4412" width="10.1471" height="10.1471" fill="#737119"/>
<rect x="71.0295" y="20.2942" width="10.1471" height="10.1471" fill="#8B8D66"/>
<rect x="91.3235" y="20.2942" width="10.1471" height="10.1471" fill="#737119"/>
<rect x="101.47" y="20.2942" width="10.1471" height="10.1471" fill="#3C3F3C"/>
<rect x="111.618" y="20.2942" width="10.1471" height="10.1471" fill="#737119"/>
<rect x="111.618" y="30.4412" width="10.1471" height="10.1471" fill="#3C3F3C"/>
<rect x="142.059" y="30.4412" width="10.1471" height="10.1471" fill="#3C3F3C"/>
<rect x="60.8823" y="30.4412" width="10.1471" height="10.1471" fill="#3C3F3C"/>
<rect x="60.8823" y="60.8823" width="10.1471" height="10.1471" fill="#D7C8A6"/>
<rect x="50.7354" y="60.8823" width="10.1471" height="10.1471" fill="#3C3F3C"/>
<rect x="121.765" y="60.8823" width="10.1471" height="10.1471" fill="#D7C8A6"/>
<rect x="111.618" y="50.7354" width="10.1471" height="10.1471" fill="#737119"/>
<rect x="121.765" y="50.7354" width="10.1471" height="10.1471" fill="#8B8D66"/>
<rect x="111.618" y="60.8823" width="10.1471" height="10.1471" fill="#3C3F3C"/>
<rect x="50.7354" y="40.5881" width="20.2941" height="20.2941" fill="#B4A885"/>
<rect x="91.3235" y="50.7354" width="20.2941" height="20.2941" fill="#B4A885"/>
<rect x="71.0295" y="50.7354" width="20.2941" height="20.2941" fill="#8B8D66"/>
<rect x="50.7354" y="71.0295" width="20.2941" height="20.2941" fill="#8B8D66"/>
<rect x="50.7354" y="91.3235" width="20.2941" height="20.2941" fill="#8B8D66"/>
<rect x="71.0295" y="91.3235" width="20.2941" height="20.2941" fill="#8B8D66"/>
<rect x="71.0295" y="111.618" width="20.2941" height="20.2941" fill="#8B8D66"/>
<rect x="91.3235" y="30.4412" width="20.2941" height="20.2941" fill="#8B8D66"/>
<rect x="81.1765" y="71.0295" width="10.1471" height="10.1471" fill="#D7C8A6"/>
<rect x="101.47" y="71.0295" width="10.1471" height="10.1471" fill="#D7C8A6"/>
<rect x="111.618" y="71.0295" width="10.1471" height="10.1471" fill="#D7C8A6"/>
<rect x="71.0295" y="71.0295" width="10.1471" height="10.1471" fill="#737119"/>
<rect x="142.059" y="71.0295" width="10.1471" height="10.1471" fill="#3C3F3C"/>
<rect x="91.3235" y="71.0295" width="10.1471" height="10.1471" fill="#8B8D66"/>
<rect x="121.765" y="71.0295" width="20.2941" height="20.2941" fill="#8B8D66"/>
<rect x="91.3235" y="81.1765" width="10.1471" height="10.1471" fill="#D7C8A6"/>
<rect x="111.618" y="81.1765" width="10.1471" height="10.1471" fill="#D7C8A6"/>
<rect x="121.765" y="91.3235" width="10.1471" height="10.1471" fill="#D7C8A6"/>
<rect x="91.3235" y="91.3235" width="10.1471" height="10.1471" fill="#737119"/>
<rect x="91.3235" y="101.47" width="10.1471" height="10.1471" fill="#737119"/>
<rect x="131.912" y="91.3235" width="10.1471" height="10.1471" fill="#8B8D66"/>
<rect x="101.47" y="81.1765" width="10.1471" height="10.1471" fill="#8B8D66"/>
<rect x="91.3235" y="111.618" width="10.1471" height="10.1471" fill="#D7C8A6"/>
<rect x="111.618" y="111.618" width="10.1471" height="10.1471" fill="#D7C8A6"/>
<rect x="142.059" y="142.059" width="10.1471" height="10.1471" fill="#D7C8A6"/>
<rect x="101.47" y="111.618" width="10.1471" height="10.1471" fill="#3C3F3C"/>
<rect x="101.47" y="91.3235" width="20.2941" height="20.2941" fill="#8B8D66"/>
<rect x="121.765" y="30.4412" width="20.2941" height="20.2941" fill="#8B8D66"/>
<rect x="131.912" y="50.7354" width="20.2941" height="20.2941" fill="#8B8D66"/>
<rect x="152.206" y="40.5881" width="20.2941" height="20.2941" fill="#8B8D66"/>
<rect x="172.5" y="30.4412" width="20.2941" height="20.2941" fill="#8B8D66"/>
<rect x="152.206" y="71.0295" width="10.1471" height="10.1471" fill="#D7C8A6"/>
<rect x="162.353" y="60.8823" width="10.1471" height="10.1471" fill="#D7C8A6"/>
<rect x="91.3235" y="192.794" width="10.1471" height="10.1471" fill="#D7C8A6"/>
<rect x="192.794" y="50.7354" width="10.1471" height="10.1471" fill="#D7C8A6"/>
<rect x="182.647" y="71.0295" width="10.1471" height="10.1471" fill="#737119"/>
<rect x="192.794" y="60.8823" width="10.1471" height="10.1471" fill="#D7C8A6"/>
<rect x="223.235" y="71.0295" width="10.1471" height="10.1471" fill="#D7C8A6"/>
<rect x="192.794" y="71.0295" width="10.1471" height="10.1471" fill="#737119"/>
<rect x="192.794" y="40.5881" width="10.1471" height="10.1471" fill="#737119"/>
<rect x="81.1765" y="182.647" width="10.1471" height="10.1471" fill="#737119"/>
<rect x="152.206" y="60.8823" width="10.1471" height="10.1471" fill="#737119"/>
<rect x="91.3235" y="182.647" width="10.1471" height="10.1471" fill="#3C3F3C"/>
<rect x="121.765" y="20.2942" width="10.1471" height="10.1471" fill="#737119"/>
<rect x="131.912" y="20.2942" width="10.1471" height="10.1471" fill="#3C3F3C"/>
<rect x="152.206" y="30.4412" width="10.1471" height="10.1471" fill="#737119"/>
<rect x="162.353" y="30.4412" width="10.1471" height="10.1471" fill="#3C3F3C"/>
<rect x="202.941" y="50.7354" width="10.1471" height="10.1471" fill="#737119"/>
<rect x="213.088" y="50.7354" width="10.1471" height="10.1471" fill="#3C3F3C"/>
<rect x="223.235" y="50.7354" width="10.1471" height="10.1471" fill="#737119"/>
<rect x="213.088" y="40.5881" width="10.1471" height="10.1471" fill="#3C3F3C"/>
<rect x="223.235" y="40.5881" width="10.1471" height="10.1471" fill="#737119"/>
<rect x="233.382" y="30.4412" width="10.1471" height="10.1471" fill="#737119"/>
<rect x="223.235" y="60.8823" width="10.1471" height="10.1471" fill="#3C3F3C"/>
<rect x="81.1765" y="192.794" width="10.1471" height="10.1471" fill="#3C3F3C"/>
<rect x="71.0295" y="192.794" width="10.1471" height="10.1471" fill="#D7C8A6"/>
<rect x="60.8823" y="192.794" width="10.1471" height="10.1471" fill="#8B8D66"/>
<rect x="172.5" y="91.3235" width="10.1471" height="10.1471" fill="#D7C8A6"/>
<rect x="162.353" y="91.3235" width="10.1471" height="10.1471" fill="#3C3F3C"/>
<rect x="20.2942" y="162.353" width="10.1471" height="10.1471" fill="#D7C8A6"/>
<rect x="10.147" y="152.206" width="10.1471" height="10.1471" fill="#737119"/>
<rect x="40.5881" y="111.618" width="10.1471" height="10.1471" fill="#3C3F3C"/>
<rect y="162.353" width="10.1471" height="10.1471" fill="#737119"/>
<rect y="172.5" width="10.1471" height="10.1471" fill="#737119"/>
<rect x="10.147" y="162.353" width="10.1471" height="10.1471" fill="#3C3F3C"/>
<rect x="223.235" y="91.3235" width="10.1471" height="10.1471" fill="#8B8D66"/>
<rect x="162.353" y="71.0295" width="20.2941" height="20.2941" fill="#B4A885"/>
<rect x="202.941" y="81.1765" width="20.2941" height="20.2941" fill="#B4A885"/>
<rect x="182.647" y="142.059" width="20.2941" height="20.2941" fill="#B4A885"/>
<rect x="162.353" y="121.765" width="20.2941" height="20.2941" fill="#B4A885"/>
<rect x="142.059" y="121.765" width="20.2941" height="20.2941" fill="#B4A885"/>
<rect x="142.059" y="101.47" width="20.2941" height="20.2941" fill="#B4A885"/>
<rect x="142.059" y="81.1765" width="20.2941" height="20.2941" fill="#B4A885"/>
<rect x="182.647" y="81.1765" width="20.2941" height="20.2941" fill="#8B8D66"/>
<rect x="162.353" y="101.47" width="20.2941" height="20.2941" fill="#8B8D66"/>
<rect x="202.941" y="60.8823" width="20.2941" height="20.2941" fill="#8B8D66"/>
<rect x="91.3235" y="162.353" width="10.1471" height="10.1471" fill="#D7C8A6"/>
<rect x="213.088" y="101.47" width="10.1471" height="10.1471" fill="#D7C8A6"/>
<rect x="233.382" y="81.1765" width="10.1471" height="10.1471" fill="#D7C8A6"/>
<rect y="152.206" width="10.1471" height="10.1471" fill="#D7C8A6"/>
<rect x="182.647" y="101.47" width="10.1471" height="10.1471" fill="#737119"/>
<rect x="182.647" y="121.765" width="10.1471" height="10.1471" fill="#737119"/>
<rect x="253.677" y="101.47" width="10.1471" height="10.1471" fill="#3C3F3C"/>
<rect x="101.47" y="162.353" width="10.1471" height="10.1471" fill="#3C3F3C"/>
<rect x="233.382" y="101.47" width="20.2941" height="20.2941" fill="#8B8D66"/>
<rect x="101.47" y="172.5" width="10.1471" height="10.1471" fill="#D7C8A6"/>
<rect x="223.235" y="81.1765" width="10.1471" height="10.1471" fill="#D7C8A6"/>
<rect x="233.382" y="121.765" width="10.1471" height="10.1471" fill="#D7C8A6"/>
<rect x="91.3235" y="172.5" width="10.1471" height="10.1471" fill="#737119"/>
<rect x="81.1765" y="172.5" width="10.1471" height="10.1471" fill="#737119"/>
<rect x="50.7354" y="182.647" width="10.1471" height="10.1471" fill="#8B8D66"/>
<rect x="50.7354" y="172.5" width="10.1471" height="10.1471" fill="#737119"/>
<rect x="10.147" y="131.912" width="10.1471" height="10.1471" fill="#3C3F3C"/>
<rect x="213.088" y="111.618" width="10.1471" height="10.1471" fill="#3C3F3C"/>
<rect x="213.088" y="121.765" width="20.2941" height="20.2941" fill="#8B8D66"/>
<rect x="233.382" y="60.8823" width="20.2941" height="20.2941" fill="#8B8D66"/>
<rect x="233.382" y="40.5881" width="20.2941" height="20.2941" fill="#8B8D66"/>
<rect x="243.529" y="30.4412" width="10.1471" height="10.1471" fill="#D7C8A6"/>
<rect x="253.677" y="20.2942" width="10.1471" height="10.1471" fill="#D7C8A6"/>
<rect x="243.529" y="10.147" width="10.1471" height="10.1471" fill="#D7C8A6"/>
<rect x="273.971" y="20.2942" width="10.1471" height="10.1471" fill="#D7C8A6"/>
<rect x="284.118" y="10.147" width="10.1471" height="10.1471" fill="#D7C8A6"/>
<rect x="273.971" y="30.4412" width="10.1471" height="10.1471" fill="#737119"/>
<rect x="284.118" y="20.2942" width="10.1471" height="10.1471" fill="#D7C8A6"/>
<rect x="314.559" y="30.4412" width="10.1471" height="10.1471" fill="#D7C8A6"/>
<rect x="284.118" y="30.4412" width="10.1471" height="10.1471" fill="#737119"/>
<rect x="284.118" width="10.1471" height="10.1471" fill="#737119"/>
<rect x="263.823" y="10.147" width="10.1471" height="10.1471" fill="#737119"/>
<rect x="243.529" y="20.2942" width="10.1471" height="10.1471" fill="#737119"/>
<rect x="253.677" y="10.147" width="10.1471" height="10.1471" fill="#737119"/>
<rect x="273.971" y="10.147" width="10.1471" height="10.1471" fill="#3C3F3C"/>
<rect x="294.265" y="10.147" width="10.1471" height="10.1471" fill="#737119"/>
<rect x="304.412" y="10.147" width="10.1471" height="10.1471" fill="#3C3F3C"/>
<rect x="314.559" y="10.147" width="10.1471" height="10.1471" fill="#737119"/>
<rect x="314.559" y="20.2942" width="10.1471" height="10.1471" fill="#3C3F3C"/>
<rect x="263.823" y="20.2942" width="10.1471" height="10.1471" fill="#3C3F3C"/>
<rect x="263.823" y="50.7354" width="10.1471" height="10.1471" fill="#D7C8A6"/>
<rect x="253.677" y="50.7354" width="10.1471" height="10.1471" fill="#3C3F3C"/>
<rect x="324.706" y="50.7354" width="10.1471" height="10.1471" fill="#D7C8A6"/>
<rect x="334.853" y="10.147" width="10.1471" height="10.1471" fill="#D7C8A6"/>
<rect x="345" y="20.2942" width="10.1471" height="10.1471" fill="#D7C8A6"/>
<rect x="314.559" y="40.5881" width="10.1471" height="10.1471" fill="#737119"/>
<rect x="324.706" y="40.5881" width="10.1471" height="10.1471" fill="#3C3F3C"/>
<rect x="314.559" y="50.7354" width="10.1471" height="10.1471" fill="#3C3F3C"/>
<rect x="253.677" y="30.4412" width="20.2941" height="20.2941" fill="#B4A885"/>
<rect x="294.265" y="40.5881" width="20.2941" height="20.2941" fill="#B4A885"/>
<rect x="273.971" y="40.5881" width="20.2941" height="20.2941" fill="#8B8D66"/>
<rect x="253.677" y="60.8823" width="20.2941" height="20.2941" fill="#8B8D66"/>
<rect x="294.265" y="20.2942" width="20.2941" height="20.2941" fill="#8B8D66"/>
<rect x="284.118" y="60.8823" width="10.1471" height="10.1471" fill="#D7C8A6"/>
<rect x="304.412" y="60.8823" width="10.1471" height="10.1471" fill="#D7C8A6"/>
<rect x="314.559" y="60.8823" width="10.1471" height="10.1471" fill="#D7C8A6"/>
<rect x="273.971" y="60.8823" width="10.1471" height="10.1471" fill="#737119"/>
<rect x="345" y="60.8823" width="10.1471" height="10.1471" fill="#3C3F3C"/>
<rect x="294.265" y="60.8823" width="10.1471" height="10.1471" fill="#3C3F3C"/>
<rect x="324.706" width="10.1471" height="10.1471" fill="#D7C8A6"/>
<rect x="314.559" width="10.1471" height="10.1471" fill="#737119"/>
<rect x="304.412" width="10.1471" height="10.1471" fill="#D7C8A6"/>
<rect x="294.265" width="10.1471" height="10.1471" fill="#737119"/>
<rect x="334.853" width="10.1471" height="10.1471" fill="#3C3F3C"/>
<rect x="324.706" y="10.147" width="10.1471" height="10.1471" fill="#3C3F3C"/>
<rect x="324.706" y="60.8823" width="20.2941" height="20.2941" fill="#8B8D66"/>
<rect x="294.265" y="71.0295" width="10.1471" height="10.1471" fill="#D7C8A6"/>
<rect x="314.559" y="71.0295" width="10.1471" height="10.1471" fill="#D7C8A6"/>
<rect x="324.706" y="81.1765" width="10.1471" height="10.1471" fill="#D7C8A6"/>
<rect x="345" y="71.0295" width="10.1471" height="10.1471" fill="#D7C8A6"/>
<rect x="263.823" y="81.1765" width="20.2941" height="20.2941" fill="#737119"/>
<rect x="243.529" y="81.1765" width="20.2941" height="20.2941" fill="#737119"/>
<rect x="192.794" y="101.47" width="20.2941" height="20.2941" fill="#737119"/>
<rect x="263.823" y="101.47" width="20.2941" height="20.2941" fill="#737119"/>
<rect x="345" y="121.765" width="20.2941" height="20.2941" fill="#737119"/>
<rect x="121.765" y="101.47" width="20.2941" height="20.2941" fill="#737119"/>
<rect x="202.941" y="142.059" width="20.2941" height="20.2941" fill="#737119"/>
<rect x="172.5" y="50.7354" width="20.2941" height="20.2941" fill="#737119"/>
<rect x="375.441" y="71.0295" width="10.1471" height="10.1471" fill="#737119"/>
<rect x="365.294" y="71.0295" width="10.1471" height="10.1471" fill="#737119"/>
<rect x="375.441" y="60.8823" width="10.1471" height="10.1471" fill="#737119"/>
<rect x="355.147" y="71.0295" width="10.1471" height="10.1471" fill="#737119"/>
<rect x="355.147" y="81.1765" width="10.1471" height="10.1471" fill="#3C3F3C"/>
<rect x="304.412" y="71.0295" width="10.1471" height="10.1471" fill="#3C3F3C"/>
<rect x="304.412" y="81.1765" width="20.2941" height="20.2941" fill="#8B8D66"/>
<rect x="324.706" y="20.2942" width="20.2941" height="20.2941" fill="#8B8D66"/>
<rect x="243.529" y="131.912" width="10.1471" height="10.1471" fill="#D7C8A6"/>
<rect x="253.677" y="121.765" width="10.1471" height="10.1471" fill="#D7C8A6"/>
<rect x="263.823" y="121.765" width="10.1471" height="10.1471" fill="#D7C8A6"/>
<rect x="385.588" y="182.647" width="10.1471" height="10.1471" fill="#D7C8A6"/>
<rect x="375.441" y="202.941" width="10.1471" height="10.1471" fill="#D7C8A6"/>
<rect x="20.2942" y="142.059" width="10.1471" height="10.1471" fill="#D7C8A6"/>
<rect x="284.118" y="111.618" width="10.1471" height="10.1471" fill="#D7C8A6"/>
<rect x="273.971" y="131.912" width="10.1471" height="10.1471" fill="#737119"/>
<rect x="284.118" y="121.765" width="10.1471" height="10.1471" fill="#D7C8A6"/>
<rect x="314.559" y="131.912" width="10.1471" height="10.1471" fill="#D7C8A6"/>
<rect x="284.118" y="131.912" width="10.1471" height="10.1471" fill="#737119"/>
<rect x="284.118" y="101.47" width="10.1471" height="10.1471" fill="#737119"/>
<rect x="10.147" y="131.912" width="10.1471" height="10.1471" fill="#737119"/>
<rect x="10.147" y="121.765" width="10.1471" height="10.1471" fill="#737119"/>
<rect x="243.529" y="121.765" width="10.1471" height="10.1471" fill="#737119"/>
<rect x="20.2942" y="131.912" width="10.1471" height="10.1471" fill="#3C3F3C"/>
<rect x="30.4412" y="121.765" width="10.1471" height="10.1471" fill="#3C3F3C"/>
<rect x="294.265" y="111.618" width="10.1471" height="10.1471" fill="#737119"/>
<rect x="304.412" y="111.618" width="10.1471" height="10.1471" fill="#737119"/>
<rect x="314.559" y="111.618" width="10.1471" height="10.1471" fill="#737119"/>
<rect x="314.559" y="121.765" width="10.1471" height="10.1471" fill="#3C3F3C"/>
<rect x="10.147" y="142.059" width="10.1471" height="10.1471" fill="#3C3F3C"/>
<rect x="263.823" y="152.206" width="10.1471" height="10.1471" fill="#D7C8A6"/>
<rect x="253.677" y="152.206" width="10.1471" height="10.1471" fill="#737119"/>
<rect x="324.706" y="152.206" width="10.1471" height="10.1471" fill="#D7C8A6"/>
<rect x="314.559" y="142.059" width="10.1471" height="10.1471" fill="#737119"/>
<rect x="324.706" y="142.059" width="10.1471" height="10.1471" fill="#3C3F3C"/>
<rect x="314.559" y="152.206" width="10.1471" height="10.1471" fill="#3C3F3C"/>
<rect x="253.677" y="131.912" width="20.2941" height="20.2941" fill="#B4A885"/>
<rect x="294.265" y="142.059" width="20.2941" height="20.2941" fill="#B4A885"/>
<rect x="273.971" y="142.059" width="20.2941" height="20.2941" fill="#8B8D66"/>
<rect x="253.677" y="162.353" width="20.2941" height="20.2941" fill="#8B8D66"/>
<rect x="253.677" y="182.647" width="20.2941" height="20.2941" fill="#8B8D66"/>
<rect x="273.971" y="182.647" width="20.2941" height="20.2941" fill="#8B8D66"/>
<rect x="294.265" y="121.765" width="20.2941" height="20.2941" fill="#8B8D66"/>
<rect x="111.618" y="142.059" width="20.2941" height="20.2941" fill="#B4A885"/>
<rect x="91.3235" y="121.765" width="20.2941" height="20.2941" fill="#B4A885"/>
<rect x="71.0295" y="131.912" width="20.2941" height="20.2941" fill="#B4A885"/>
<rect x="50.7354" y="131.912" width="20.2941" height="20.2941" fill="#B4A885"/>
<rect x="30.4412" y="131.912" width="20.2941" height="20.2941" fill="#B4A885"/>
<rect x="10.147" y="172.5" width="20.2941" height="20.2941" fill="#B4A885"/>
<rect x="50.7354" y="111.618" width="20.2941" height="20.2941" fill="#B4A885"/>
<rect x="71.0295" y="152.206" width="20.2941" height="20.2941" fill="#B4A885"/>
<rect x="91.3235" y="142.059" width="20.2941" height="20.2941" fill="#8B8D66"/>
<rect x="111.618" y="121.765" width="20.2941" height="20.2941" fill="#8B8D66"/>
<rect x="30.4412" y="172.5" width="20.2941" height="20.2941" fill="#8B8D66"/>
<rect x="60.8823" y="172.5" width="20.2941" height="20.2941" fill="#8B8D66"/>
<rect x="50.7354" y="152.206" width="20.2941" height="20.2941" fill="#8B8D66"/>
<rect x="30.4412" y="152.206" width="20.2941" height="20.2941" fill="#8B8D66"/>
<rect x="284.118" y="162.353" width="10.1471" height="10.1471" fill="#D7C8A6"/>
<rect x="304.412" y="162.353" width="10.1471" height="10.1471" fill="#D7C8A6"/>
<rect x="314.559" y="162.353" width="10.1471" height="10.1471" fill="#D7C8A6"/>
<rect x="273.971" y="162.353" width="10.1471" height="10.1471" fill="#737119"/>
<rect x="345" y="162.353" width="10.1471" height="10.1471" fill="#3C3F3C"/>
<rect x="294.265" y="162.353" width="10.1471" height="10.1471" fill="#3C3F3C"/>
<rect x="324.706" y="162.353" width="20.2941" height="20.2941" fill="#8B8D66"/>
<rect x="294.265" y="172.5" width="10.1471" height="10.1471" fill="#D7C8A6"/>
<rect x="314.559" y="172.5" width="10.1471" height="10.1471" fill="#D7C8A6"/>
<rect x="345" y="172.5" width="10.1471" height="10.1471" fill="#D7C8A6"/>
<rect x="284.118" y="172.5" width="10.1471" height="10.1471" fill="#737119"/>
<rect x="355.147" y="172.5" width="10.1471" height="10.1471" fill="#3C3F3C"/>
<rect x="304.412" y="182.647" width="20.2941" height="20.2941" fill="#8B8D66"/>
<rect x="324.706" y="182.647" width="20.2941" height="20.2941" fill="#8B8D66"/>
<rect x="345" y="182.647" width="20.2941" height="20.2941" fill="#8B8D66"/>
<rect x="324.706" y="121.765" width="20.2941" height="20.2941" fill="#8B8D66"/>
<rect x="446.471" y="152.206" width="10.1471" height="10.1471" transform="rotate(180 446.471 152.206)" fill="#D7C8A6"/>
<rect x="456.618" y="111.618" width="10.1471" height="10.1471" transform="rotate(180 456.618 111.618)" fill="#D7C8A6"/>
<rect x="497.206" y="192.794" width="10.1471" height="10.1471" transform="rotate(180 497.206 192.794)" fill="#D7C8A6"/>
<rect x="416.029" y="162.353" width="10.1471" height="10.1471" transform="rotate(180 416.029 162.353)" fill="#D7C8A6"/>
<rect x="405.882" y="172.5" width="10.1471" height="10.1471" transform="rotate(180 405.882 172.5)" fill="#D7C8A6"/>
<rect x="416.029" y="152.206" width="10.1471" height="10.1471" transform="rotate(180 416.029 152.206)" fill="#737119"/>
<rect x="507.353" y="182.647" width="10.1471" height="10.1471" transform="rotate(180 507.353 182.647)" fill="#D7C8A6"/>
<rect x="517.5" y="182.647" width="10.1471" height="10.1471" transform="rotate(180 517.5 182.647)" fill="#D7C8A6"/>
<rect x="405.882" y="152.206" width="10.1471" height="10.1471" transform="rotate(180 405.882 152.206)" fill="#737119"/>
<rect x="405.882" y="162.353" width="10.1471" height="10.1471" transform="rotate(180 405.882 162.353)" fill="#737119"/>
<rect x="405.882" y="182.647" width="10.1471" height="10.1471" transform="rotate(180 405.882 182.647)" fill="#737119"/>
<rect x="426.177" y="172.5" width="10.1471" height="10.1471" transform="rotate(180 426.177 172.5)" fill="#737119"/>
<rect x="507.353" y="192.794" width="10.1471" height="10.1471" transform="rotate(180 507.353 192.794)" fill="#737119"/>
<rect x="416.029" y="172.5" width="10.1471" height="10.1471" transform="rotate(180 416.029 172.5)" fill="#3C3F3C"/>
<rect x="395.735" y="172.5" width="10.1471" height="10.1471" transform="rotate(180 395.735 172.5)" fill="#737119"/>
<rect x="497.206" y="202.941" width="10.1471" height="10.1471" transform="rotate(180 497.206 202.941)" fill="#3C3F3C"/>
<rect x="487.059" y="202.941" width="10.1471" height="10.1471" transform="rotate(180 487.059 202.941)" fill="#737119"/>
<rect x="375.441" y="162.353" width="10.1471" height="10.1471" transform="rotate(180 375.441 162.353)" fill="#3C3F3C"/>
<rect x="487.059" y="192.794" width="10.1471" height="10.1471" transform="rotate(180 487.059 192.794)" fill="#737119"/>
<rect x="426.177" y="131.912" width="10.1471" height="10.1471" transform="rotate(180 426.177 131.912)" fill="#D7C8A6"/>
<rect x="395.735" y="142.059" width="10.1471" height="10.1471" transform="rotate(180 395.735 142.059)" fill="#D7C8A6"/>
<rect x="436.323" y="131.912" width="10.1471" height="10.1471" transform="rotate(180 436.323 131.912)" fill="#737119"/>
<rect x="345" y="162.353" width="10.1471" height="10.1471" transform="rotate(180 345 162.353)" fill="#D7C8A6"/>
<rect x="507.353" y="202.941" width="10.1471" height="10.1471" transform="rotate(180 507.353 202.941)" fill="#737119"/>
<rect x="375.441" y="152.206" width="10.1471" height="10.1471" transform="rotate(180 375.441 152.206)" fill="#737119"/>
<rect x="375.441" y="131.912" width="10.1471" height="10.1471" transform="rotate(180 375.441 131.912)" fill="#3C3F3C"/>
<rect x="436.323" y="152.206" width="20.2941" height="20.2941" transform="rotate(180 436.323 152.206)" fill="#B4A885"/>
<rect x="395.735" y="131.912" width="20.2941" height="20.2941" transform="rotate(180 395.735 131.912)" fill="#B4A885"/>
<rect x="416.029" y="142.059" width="20.2941" height="20.2941" transform="rotate(180 416.029 142.059)" fill="#8B8D66"/>
<rect x="436.323" y="121.765" width="20.2941" height="20.2941" transform="rotate(180 436.323 121.765)" fill="#8B8D66"/>
<rect x="405.882" y="101.47" width="20.2941" height="20.2941" transform="rotate(180 405.882 101.47)" fill="#8B8D66"/>
<rect x="395.735" y="162.353" width="20.2941" height="20.2941" transform="rotate(180 395.735 162.353)" fill="#8B8D66"/>
<rect x="385.588" y="182.647" width="20.2941" height="20.2941" transform="rotate(180 385.588 182.647)" fill="#8B8D66"/>
<rect x="385.588" y="202.941" width="20.2941" height="20.2941" transform="rotate(180 385.588 202.941)" fill="#8B8D66"/>
<rect x="405.882" y="121.765" width="10.1471" height="10.1471" transform="rotate(180 405.882 121.765)" fill="#D7C8A6"/>
<rect x="446.471" y="101.47" width="10.1471" height="10.1471" transform="rotate(180 446.471 101.47)" fill="#D7C8A6"/>
<rect x="375.441" y="121.765" width="10.1471" height="10.1471" transform="rotate(180 375.441 121.765)" fill="#D7C8A6"/>
<rect x="416.029" y="121.765" width="10.1471" height="10.1471" transform="rotate(180 416.029 121.765)" fill="#737119"/>
<rect x="324.706" y="111.618" width="10.1471" height="10.1471" transform="rotate(180 324.706 111.618)" fill="#3C3F3C"/>
<rect x="446.471" y="142.059" width="10.1471" height="10.1471" transform="rotate(180 446.471 142.059)" fill="#3C3F3C"/>
<rect x="365.294" y="121.765" width="20.2941" height="20.2941" transform="rotate(180 365.294 121.765)" fill="#8B8D66"/>
<rect x="416.029" y="101.47" width="10.1471" height="10.1471" transform="rotate(180 416.029 101.47)" fill="#D7C8A6"/>
<rect x="436.323" y="101.47" width="10.1471" height="10.1471" transform="rotate(180 436.323 101.47)" fill="#D7C8A6"/>
<rect x="375.441" y="111.618" width="10.1471" height="10.1471" transform="rotate(180 375.441 111.618)" fill="#D7C8A6"/>
<rect x="365.294" y="101.47" width="10.1471" height="10.1471" transform="rotate(180 365.294 101.47)" fill="#D7C8A6"/>
<rect x="405.882" y="111.618" width="10.1471" height="10.1471" transform="rotate(180 405.882 111.618)" fill="#737119"/>
<rect x="375.441" y="142.059" width="10.1471" height="10.1471" transform="rotate(180 375.441 142.059)" fill="#737119"/>
<rect x="345" y="152.206" width="10.1471" height="10.1471" transform="rotate(180 345 152.206)" fill="#737119"/>
<rect x="426.177" y="101.47" width="10.1471" height="10.1471" transform="rotate(180 426.177 101.47)" fill="#737119"/>
<rect x="334.853" y="101.47" width="10.1471" height="10.1471" transform="rotate(180 334.853 101.47)" fill="#3C3F3C"/>
<rect x="385.588" y="111.618" width="10.1471" height="10.1471" transform="rotate(180 385.588 111.618)" fill="#3C3F3C"/>
<rect x="385.588" y="101.47" width="20.2941" height="20.2941" transform="rotate(180 385.588 101.47)" fill="#8B8D66"/>
<rect x="355.147" y="101.47" width="20.2941" height="20.2941" transform="rotate(180 355.147 101.47)" fill="#8B8D66"/>
<rect x="345" y="121.765" width="20.2941" height="20.2941" transform="rotate(180 345 121.765)" fill="#8B8D66"/>
<rect x="365.294" y="162.353" width="20.2941" height="20.2941" transform="rotate(180 365.294 162.353)" fill="#8B8D66"/>
<rect x="345" y="213.088" width="10.1471" height="10.1471" fill="#D7C8A6"/>
<rect x="345" y="202.941" width="10.1471" height="10.1471" fill="#737119"/>
<rect x="355.147" y="233.382" width="10.1471" height="10.1471" fill="#D7C8A6"/>
<rect x="365.294" y="223.235" width="10.1471" height="10.1471" fill="#D7C8A6"/>
<rect x="345" y="223.235" width="10.1471" height="10.1471" fill="#737119"/>
<rect x="385.588" y="233.382" width="10.1471" height="10.1471" fill="#737119"/>
<rect x="284.118" y="263.823" width="10.1471" height="10.1471" fill="#737119"/>
<rect x="355.147" y="223.235" width="10.1471" height="10.1471" fill="#3C3F3C"/>
<rect x="375.441" y="253.677" width="10.1471" height="10.1471" fill="#3C3F3C"/>
<rect x="345" y="233.382" width="10.1471" height="10.1471" fill="#3C3F3C"/>
<rect x="284.118" y="253.677" width="10.1471" height="10.1471" fill="#D7C8A6"/>
<rect x="273.971" y="253.677" width="10.1471" height="10.1471" fill="#3C3F3C"/>
<rect x="324.706" y="223.235" width="20.2941" height="20.2941" fill="#B4A885"/>
<rect x="213.088" y="273.971" width="20.2941" height="20.2941" fill="#B4A885"/>
<rect x="294.265" y="253.677" width="20.2941" height="20.2941" fill="#B4A885"/>
<rect x="324.706" y="202.941" width="20.2941" height="20.2941" fill="#8B8D66"/>
<rect x="334.853" y="243.529" width="10.1471" height="10.1471" fill="#D7C8A6"/>
<rect x="345" y="243.529" width="10.1471" height="10.1471" fill="#D7C8A6"/>
<rect x="375.441" y="233.382" width="10.1471" height="10.1471" fill="#3C3F3C"/>
<rect x="365.294" y="233.382" width="10.1471" height="10.1471" fill="#3C3F3C"/>
<rect x="355.147" y="243.529" width="20.2941" height="20.2941" fill="#8B8D66"/>
<rect x="345" y="253.677" width="10.1471" height="10.1471" fill="#D7C8A6"/>
<rect x="355.147" y="263.823" width="10.1471" height="10.1471" fill="#D7C8A6"/>
<rect x="385.588" y="243.529" width="10.1471" height="10.1471" fill="#3C3F3C"/>
<rect x="334.853" y="253.677" width="10.1471" height="10.1471" fill="#3C3F3C"/>
<rect x="314.559" y="223.235" width="10.1471" height="10.1471" fill="#D7C8A6"/>
<rect x="324.706" y="263.823" width="10.1471" height="10.1471" fill="#D7C8A6"/>
<rect x="314.559" y="263.823" width="10.1471" height="10.1471" fill="#3C3F3C"/>
<rect x="334.853" y="263.823" width="10.1471" height="10.1471" fill="#3C3F3C"/>
<rect x="345" y="263.823" width="10.1471" height="10.1471" fill="#3C3F3C"/>
<rect x="375.441" y="304.412" width="10.1471" height="10.1471" fill="#3C3F3C"/>
<rect x="385.588" y="304.412" width="10.1471" height="10.1471" fill="#3C3F3C"/>
<rect x="334.853" y="273.971" width="20.2941" height="20.2941" fill="#8B8D66"/>
<rect x="355.147" y="202.941" width="20.2941" height="20.2941" fill="#8B8D66"/>
<rect x="345" y="304.412" width="10.1471" height="10.1471" fill="#D7C8A6"/>
<rect x="345" y="294.265" width="10.1471" height="10.1471" fill="#3C3F3C"/>
<rect x="355.147" y="324.706" width="10.1471" height="10.1471" fill="#D7C8A6"/>
<rect x="365.294" y="314.559" width="10.1471" height="10.1471" fill="#D7C8A6"/>
<rect x="395.735" y="314.559" width="10.1471" height="10.1471" fill="#D7C8A6"/>
<rect x="314.559" y="304.412" width="10.1471" height="10.1471" fill="#D7C8A6"/>
<rect x="345" y="314.559" width="10.1471" height="10.1471" fill="#737119"/>
<rect x="385.588" y="314.559" width="10.1471" height="10.1471" fill="#737119"/>
<rect x="355.147" y="314.559" width="10.1471" height="10.1471" fill="#3C3F3C"/>
<rect x="395.735" y="304.412" width="10.1471" height="10.1471" fill="#3C3F3C"/>
<rect x="314.559" y="294.265" width="10.1471" height="10.1471" fill="#3C3F3C"/>
<rect x="324.706" y="314.559" width="10.1471" height="10.1471" fill="#737119"/>
<rect x="314.559" y="284.118" width="10.1471" height="10.1471" fill="#737119"/>
<rect x="304.412" y="294.265" width="10.1471" height="10.1471" fill="#737119"/>
<rect x="304.412" y="304.412" width="10.1471" height="10.1471" fill="#D7C8A6"/>
<rect x="294.265" y="294.265" width="10.1471" height="10.1471" fill="#737119"/>
<rect x="334.853" y="314.559" width="10.1471" height="10.1471" fill="#3C3F3C"/>
<rect x="324.706" y="284.118" width="10.1471" height="10.1471" fill="#3C3F3C"/>
<rect x="355.147" y="284.118" width="10.1471" height="10.1471" fill="#3C3F3C"/>
<rect x="345" y="324.706" width="10.1471" height="10.1471" fill="#3C3F3C"/>
<rect x="324.706" y="324.706" width="20.2941" height="20.2941" fill="#B4A885"/>
<rect x="324.706" y="294.265" width="20.2941" height="20.2941" fill="#8B8D66"/>
<rect x="355.147" y="294.265" width="20.2941" height="20.2941" fill="#8B8D66"/>
<rect x="476.912" y="213.088" width="10.1471" height="10.1471" transform="rotate(180 476.912 213.088)" fill="#D7C8A6"/>
<rect x="446.471" y="233.382" width="10.1471" height="10.1471" transform="rotate(180 446.471 233.382)" fill="#D7C8A6"/>
<rect x="436.323" y="243.529" width="10.1471" height="10.1471" transform="rotate(180 436.323 243.529)" fill="#D7C8A6"/>
<rect x="446.471" y="223.235" width="10.1471" height="10.1471" transform="rotate(180 446.471 223.235)" fill="#737119"/>
<rect x="436.323" y="233.382" width="10.1471" height="10.1471" transform="rotate(180 436.323 233.382)" fill="#D7C8A6"/>
<rect x="405.882" y="223.235" width="10.1471" height="10.1471" transform="rotate(180 405.882 223.235)" fill="#D7C8A6"/>
<rect x="436.323" y="223.235" width="10.1471" height="10.1471" transform="rotate(180 436.323 223.235)" fill="#737119"/>
<rect x="476.912" y="202.941" width="10.1471" height="10.1471" transform="rotate(180 476.912 202.941)" fill="#737119"/>
<rect x="466.765" y="233.382" width="10.1471" height="10.1471" transform="rotate(180 466.765 233.382)" fill="#737119"/>
<rect x="446.471" y="243.529" width="10.1471" height="10.1471" transform="rotate(180 446.471 243.529)" fill="#3C3F3C"/>
<rect x="426.177" y="243.529" width="10.1471" height="10.1471" transform="rotate(180 426.177 243.529)" fill="#737119"/>
<rect x="416.029" y="243.529" width="10.1471" height="10.1471" transform="rotate(180 416.029 243.529)" fill="#3C3F3C"/>
<rect x="405.882" y="243.529" width="10.1471" height="10.1471" transform="rotate(180 405.882 243.529)" fill="#737119"/>
<rect x="405.882" y="253.677" width="10.1471" height="10.1471" transform="rotate(180 405.882 253.677)" fill="#737119"/>
<rect x="405.882" y="233.382" width="10.1471" height="10.1471" transform="rotate(180 405.882 233.382)" fill="#3C3F3C"/>
<rect x="456.618" y="233.382" width="10.1471" height="10.1471" transform="rotate(180 456.618 233.382)" fill="#3C3F3C"/>
<rect x="416.029" y="111.618" width="10.1471" height="10.1471" transform="rotate(180 416.029 111.618)" fill="#D7C8A6"/>
<rect x="395.735" y="182.647" width="10.1471" height="10.1471" transform="rotate(180 395.735 182.647)" fill="#737119"/>
<rect x="395.735" y="202.941" width="10.1471" height="10.1471" transform="rotate(180 395.735 202.941)" fill="#D7C8A6"/>
<rect x="385.588" y="253.677" width="10.1471" height="10.1471" transform="rotate(180 385.588 253.677)" fill="#D7C8A6"/>
<rect x="405.882" y="213.088" width="10.1471" height="10.1471" transform="rotate(180 405.882 213.088)" fill="#737119"/>
<rect x="395.735" y="213.088" width="10.1471" height="10.1471" transform="rotate(180 395.735 213.088)" fill="#3C3F3C"/>
<rect x="405.882" y="202.941" width="10.1471" height="10.1471" transform="rotate(180 405.882 202.941)" fill="#3C3F3C"/>
<rect x="466.765" y="223.235" width="20.2941" height="20.2941" transform="rotate(180 466.765 223.235)" fill="#B4A885"/>
<rect x="426.177" y="213.088" width="20.2941" height="20.2941" transform="rotate(180 426.177 213.088)" fill="#B4A885"/>
<rect x="446.471" y="213.088" width="20.2941" height="20.2941" transform="rotate(180 446.471 213.088)" fill="#8B8D66"/>
<rect x="426.177" y="233.382" width="20.2941" height="20.2941" transform="rotate(180 426.177 233.382)" fill="#8B8D66"/>
<rect x="507.353" y="172.5" width="10.1471" height="10.1471" transform="rotate(180 507.353 172.5)" fill="#D7C8A6"/>
<rect x="517.5" y="152.206" width="10.1471" height="10.1471" transform="rotate(180 517.5 152.206)" fill="#D7C8A6"/>
<rect x="487.059" y="172.5" width="10.1471" height="10.1471" transform="rotate(180 487.059 172.5)" fill="#D7C8A6"/>
<rect x="476.912" y="182.647" width="10.1471" height="10.1471" transform="rotate(180 476.912 182.647)" fill="#D7C8A6"/>
<rect x="487.059" y="162.353" width="10.1471" height="10.1471" transform="rotate(180 487.059 162.353)" fill="#737119"/>
<rect x="476.912" y="172.5" width="10.1471" height="10.1471" transform="rotate(180 476.912 172.5)" fill="#D7C8A6"/>
<rect x="476.912" y="162.353" width="10.1471" height="10.1471" transform="rotate(180 476.912 162.353)" fill="#737119"/>
<rect x="497.206" y="182.647" width="10.1471" height="10.1471" transform="rotate(180 497.206 182.647)" fill="#737119"/>
<rect x="517.5" y="142.059" width="10.1471" height="10.1471" transform="rotate(180 517.5 142.059)" fill="#737119"/>
<rect x="487.059" y="182.647" width="10.1471" height="10.1471" transform="rotate(180 487.059 182.647)" fill="#737119"/>
<rect x="466.765" y="182.647" width="10.1471" height="10.1471" transform="rotate(180 466.765 182.647)" fill="#737119"/>
<rect x="456.618" y="182.647" width="10.1471" height="10.1471" transform="rotate(180 456.618 182.647)" fill="#3C3F3C"/>
<rect x="476.912" y="111.618" width="10.1471" height="10.1471" transform="rotate(180 476.912 111.618)" fill="#3C3F3C"/>
<rect x="466.765" y="111.618" width="10.1471" height="10.1471" transform="rotate(180 466.765 111.618)" fill="#3C3F3C"/>
<rect x="446.471" y="111.618" width="10.1471" height="10.1471" transform="rotate(180 446.471 111.618)" fill="#3C3F3C"/>
<rect x="517.5" y="131.912" width="10.1471" height="10.1471" transform="rotate(180 517.5 131.912)" fill="#3C3F3C"/>
<rect x="497.206" y="172.5" width="10.1471" height="10.1471" transform="rotate(180 497.206 172.5)" fill="#3C3F3C"/>
<rect x="497.206" y="142.059" width="10.1471" height="10.1471" transform="rotate(180 497.206 142.059)" fill="#D7C8A6"/>
<rect x="507.353" y="131.912" width="10.1471" height="10.1471" transform="rotate(180 507.353 131.912)" fill="#D7C8A6"/>
<rect x="507.353" y="142.059" width="10.1471" height="10.1471" transform="rotate(180 507.353 142.059)" fill="#3C3F3C"/>
<rect x="507.353" y="162.353" width="20.2941" height="20.2941" transform="rotate(180 507.353 162.353)" fill="#B4A885"/>
<rect x="466.765" y="152.206" width="20.2941" height="20.2941" transform="rotate(180 466.765 152.206)" fill="#B4A885"/>
<rect x="446.471" y="172.5" width="20.2941" height="20.2941" transform="rotate(180 446.471 172.5)" fill="#B4A885"/>
<rect x="446.471" y="192.794" width="20.2941" height="20.2941" transform="rotate(180 446.471 192.794)" fill="#B4A885"/>
<rect x="466.765" y="202.941" width="20.2941" height="20.2941" transform="rotate(180 466.765 202.941)" fill="#B4A885"/>
<rect x="426.177" y="192.794" width="20.2941" height="20.2941" transform="rotate(180 426.177 192.794)" fill="#B4A885"/>
<rect x="304.412" y="101.47" width="20.2941" height="20.2941" transform="rotate(180 304.412 101.47)" fill="#B4A885"/>
<rect x="375.441" y="71.0295" width="20.2941" height="20.2941" transform="rotate(180 375.441 71.0295)" fill="#B4A885"/>
<rect x="355.147" y="60.8823" width="20.2941" height="20.2941" transform="rotate(180 355.147 60.8823)" fill="#B4A885"/>
<rect x="487.059" y="152.206" width="20.2941" height="20.2941" transform="rotate(180 487.059 152.206)" fill="#8B8D66"/>
<rect x="456.618" y="131.912" width="20.2941" height="20.2941" transform="rotate(180 456.618 131.912)" fill="#B4A885"/>
<rect x="497.206" y="131.912" width="20.2941" height="20.2941" transform="rotate(180 497.206 131.912)" fill="#B4A885"/>
<rect x="476.912" y="131.912" width="20.2941" height="20.2941" transform="rotate(180 476.912 131.912)" fill="#8B8D66"/>
<rect x="466.765" y="172.5" width="20.2941" height="20.2941" transform="rotate(180 466.765 172.5)" fill="#8B8D66"/>
<rect x="395.735" y="233.382" width="20.2941" height="20.2941" transform="rotate(180 395.735 233.382)" fill="#8B8D66"/>
<rect x="111.618" y="192.794" width="10.1471" height="10.1471" transform="rotate(180 111.618 192.794)" fill="#D7C8A6"/>
<rect x="243.529" y="202.941" width="10.1471" height="10.1471" transform="rotate(180 243.529 202.941)" fill="#D7C8A6"/>
<rect x="223.235" y="202.941" width="10.1471" height="10.1471" transform="rotate(180 223.235 202.941)" fill="#D7C8A6"/>
<rect x="213.088" y="213.088" width="10.1471" height="10.1471" transform="rotate(180 213.088 213.088)" fill="#D7C8A6"/>
<rect x="223.235" y="192.794" width="10.1471" height="10.1471" transform="rotate(180 223.235 192.794)" fill="#737119"/>
<rect x="213.088" y="202.941" width="10.1471" height="10.1471" transform="rotate(180 213.088 202.941)" fill="#D7C8A6"/>
<rect x="182.647" y="192.794" width="10.1471" height="10.1471" transform="rotate(180 182.647 192.794)" fill="#D7C8A6"/>
<rect x="213.088" y="192.794" width="10.1471" height="10.1471" transform="rotate(180 213.088 192.794)" fill="#737119"/>
<rect x="213.088" y="223.235" width="10.1471" height="10.1471" transform="rotate(180 213.088 223.235)" fill="#737119"/>
<rect x="213.088" y="294.265" width="10.1471" height="10.1471" transform="rotate(180 213.088 294.265)" fill="#D7C8A6"/>
<rect x="213.088" y="284.118" width="10.1471" height="10.1471" transform="rotate(180 213.088 284.118)" fill="#D7C8A6"/>
<rect x="213.088" y="304.412" width="10.1471" height="10.1471" transform="rotate(180 213.088 304.412)" fill="#737119"/>
<rect x="233.382" y="213.088" width="10.1471" height="10.1471" transform="rotate(180 233.382 213.088)" fill="#737119"/>
<rect x="253.677" y="202.941" width="10.1471" height="10.1471" transform="rotate(180 253.677 202.941)" fill="#737119"/>
<rect x="233.382" y="223.235" width="10.1471" height="10.1471" transform="rotate(180 233.382 223.235)" fill="#3C3F3C"/>
<rect x="243.529" y="263.823" width="10.1471" height="10.1471" transform="rotate(180 243.529 263.823)" fill="#737119"/>
<rect x="243.529" y="273.971" width="10.1471" height="10.1471" transform="rotate(180 243.529 273.971)" fill="#3C3F3C"/>
<rect x="202.941" y="213.088" width="10.1471" height="10.1471" transform="rotate(180 202.941 213.088)" fill="#737119"/>
<rect x="192.794" y="213.088" width="10.1471" height="10.1471" transform="rotate(180 192.794 213.088)" fill="#3C3F3C"/>
<rect x="182.647" y="213.088" width="10.1471" height="10.1471" transform="rotate(180 182.647 213.088)" fill="#737119"/>
<rect x="182.647" y="202.941" width="10.1471" height="10.1471" transform="rotate(180 182.647 202.941)" fill="#3C3F3C"/>
<rect x="233.382" y="202.941" width="10.1471" height="10.1471" transform="rotate(180 233.382 202.941)" fill="#3C3F3C"/>
<rect x="233.382" y="273.971" width="10.1471" height="10.1471" transform="rotate(180 233.382 273.971)" fill="#737119"/>
<rect x="233.382" y="263.823" width="10.1471" height="10.1471" transform="rotate(180 233.382 263.823)" fill="#3C3F3C"/>
<rect x="233.382" y="253.677" width="10.1471" height="10.1471" transform="rotate(180 233.382 253.677)" fill="#3C3F3C"/>
<rect x="223.235" y="273.971" width="10.1471" height="10.1471" transform="rotate(180 223.235 273.971)" fill="#3C3F3C"/>
<rect x="182.647" y="304.412" width="10.1471" height="10.1471" transform="rotate(180 182.647 304.412)" fill="#3C3F3C"/>
<rect x="233.382" y="172.5" width="10.1471" height="10.1471" transform="rotate(180 233.382 172.5)" fill="#D7C8A6"/>
<rect x="243.529" y="172.5" width="10.1471" height="10.1471" transform="rotate(180 243.529 172.5)" fill="#3C3F3C"/>
<rect x="172.5" y="172.5" width="10.1471" height="10.1471" transform="rotate(180 172.5 172.5)" fill="#D7C8A6"/>
<rect x="182.647" y="182.647" width="10.1471" height="10.1471" transform="rotate(180 182.647 182.647)" fill="#737119"/>
<rect x="162.353" y="172.5" width="10.1471" height="10.1471" transform="rotate(180 162.353 172.5)" fill="#737119"/>
<rect x="142.059" y="162.353" width="10.1471" height="10.1471" transform="rotate(180 142.059 162.353)" fill="#737119"/>
<rect x="142.059" y="131.912" width="10.1471" height="10.1471" transform="rotate(180 142.059 131.912)" fill="#737119"/>
<rect x="142.059" y="142.059" width="10.1471" height="10.1471" transform="rotate(180 142.059 142.059)" fill="#737119"/>
<rect x="121.765" y="192.794" width="10.1471" height="10.1471" transform="rotate(180 121.765 192.794)" fill="#737119"/>
<rect x="172.5" y="182.647" width="10.1471" height="10.1471" transform="rotate(180 172.5 182.647)" fill="#3C3F3C"/>
<rect x="182.647" y="172.5" width="10.1471" height="10.1471" transform="rotate(180 182.647 172.5)" fill="#3C3F3C"/>
<rect x="142.059" y="172.5" width="10.1471" height="10.1471" transform="rotate(180 142.059 172.5)" fill="#D7C8A6"/>
<rect x="142.059" y="182.647" width="10.1471" height="10.1471" transform="rotate(180 142.059 182.647)" fill="#D7C8A6"/>
<rect x="152.206" y="172.5" width="10.1471" height="10.1471" transform="rotate(180 152.206 172.5)" fill="#3C3F3C"/>
<rect x="243.529" y="192.794" width="20.2941" height="20.2941" transform="rotate(180 243.529 192.794)" fill="#B4A885"/>
<rect x="273.971" y="223.235" width="20.2941" height="20.2941" transform="rotate(180 273.971 223.235)" fill="#B4A885"/>
<rect x="202.941" y="182.647" width="20.2941" height="20.2941" transform="rotate(180 202.941 182.647)" fill="#B4A885"/>
<rect x="223.235" y="223.235" width="10.1471" height="10.1471" transform="rotate(180 223.235 223.235)" fill="#B4A885"/>
<rect x="253.677" y="162.353" width="10.1471" height="10.1471" transform="rotate(180 253.677 162.353)" fill="#B4A885"/>
<rect x="91.3235" y="91.3235" width="10.1471" height="10.1471" transform="rotate(180 91.3235 91.3235)" fill="#B4A885"/>
<rect x="81.1765" y="91.3235" width="10.1471" height="10.1471" transform="rotate(180 81.1765 91.3235)" fill="#B4A885"/>
<rect x="192.794" y="121.765" width="10.1471" height="10.1471" transform="rotate(180 192.794 121.765)" fill="#B4A885"/>
<rect x="30.4412" y="162.353" width="10.1471" height="10.1471" transform="rotate(180 30.4412 162.353)" fill="#B4A885"/>
<rect x="243.529" y="142.059" width="10.1471" height="10.1471" transform="rotate(180 243.529 142.059)" fill="#B4A885"/>
<rect x="233.382" y="121.765" width="10.1471" height="10.1471" transform="rotate(180 233.382 121.765)" fill="#B4A885"/>
<rect x="233.382" y="111.618" width="10.1471" height="10.1471" transform="rotate(180 233.382 111.618)" fill="#B4A885"/>
<rect x="243.529" y="101.47" width="10.1471" height="10.1471" transform="rotate(180 243.529 101.47)" fill="#B4A885"/>
<rect x="284.118" y="81.1765" width="10.1471" height="10.1471" transform="rotate(180 284.118 81.1765)" fill="#B4A885"/>
<rect x="294.265" y="81.1765" width="10.1471" height="10.1471" transform="rotate(180 294.265 81.1765)" fill="#B4A885"/>
<rect x="314.559" y="111.618" width="10.1471" height="10.1471" transform="rotate(180 314.559 111.618)" fill="#B4A885"/>
<rect x="304.412" y="111.618" width="10.1471" height="10.1471" transform="rotate(180 304.412 111.618)" fill="#B4A885"/>
<rect x="304.412" y="192.794" width="10.1471" height="10.1471" transform="rotate(180 304.412 192.794)" fill="#B4A885"/>
<rect x="253.677" y="172.5" width="10.1471" height="10.1471" transform="rotate(180 253.677 172.5)" fill="#B4A885"/>
<rect x="284.118" y="131.912" width="10.1471" height="10.1471" transform="rotate(180 284.118 131.912)" fill="#B4A885"/>
<rect x="263.823" y="121.765" width="10.1471" height="10.1471" transform="rotate(180 263.823 121.765)" fill="#B4A885"/>
<rect x="314.559" y="182.647" width="10.1471" height="10.1471" transform="rotate(180 314.559 182.647)" fill="#B4A885"/>
<rect x="365.294" y="172.5" width="10.1471" height="10.1471" transform="rotate(180 365.294 172.5)" fill="#B4A885"/>
<rect x="385.588" y="142.059" width="10.1471" height="10.1471" transform="rotate(180 385.588 142.059)" fill="#B4A885"/>
<rect x="426.177" y="162.353" width="10.1471" height="10.1471" transform="rotate(180 426.177 162.353)" fill="#B4A885"/>
<rect x="395.735" y="111.618" width="10.1471" height="10.1471" transform="rotate(180 395.735 111.618)" fill="#B4A885"/>
<rect x="405.882" y="192.794" width="10.1471" height="10.1471" transform="rotate(180 405.882 192.794)" fill="#B4A885"/>
<rect x="476.912" y="192.794" width="10.1471" height="10.1471" transform="rotate(180 476.912 192.794)" fill="#B4A885"/>
<rect x="223.235" y="182.647" width="20.2941" height="20.2941" transform="rotate(180 223.235 182.647)" fill="#8B8D66"/>
<rect x="243.529" y="162.353" width="20.2941" height="20.2941" transform="rotate(180 243.529 162.353)" fill="#8B8D66"/>
<rect x="273.971" y="213.088" width="10.1471" height="10.1471" fill="#D7C8A6"/>
<rect x="294.265" y="192.794" width="10.1471" height="10.1471" fill="#737119"/>
<rect x="304.412" y="202.941" width="20.2941" height="20.2941" fill="#B4A885"/>
<rect x="284.118" y="223.235" width="20.2941" height="20.2941" fill="#B4A885"/>
<rect x="314.559" y="243.529" width="20.2941" height="20.2941" fill="#B4A885"/>
<rect x="284.118" y="202.941" width="20.2941" height="20.2941" fill="#8B8D66"/>
<rect x="304.412" y="223.235" width="10.1471" height="10.1471" fill="#8B8D66"/>
<rect x="314.559" y="233.382" width="10.1471" height="10.1471" fill="#8B8D66"/>
<rect x="273.971" y="172.5" width="10.1471" height="10.1471" fill="#8B8D66"/>
<rect x="253.677" y="223.235" width="10.1471" height="10.1471" fill="#8B8D66"/>
<rect x="273.971" y="202.941" width="10.1471" height="10.1471" fill="#8B8D66"/>
<rect x="243.529" y="182.647" width="10.1471" height="10.1471" fill="#8B8D66"/>
<rect x="243.529" y="142.059" width="10.1471" height="10.1471" fill="#8B8D66"/>
<rect x="213.088" y="202.941" width="10.1471" height="10.1471" fill="#8B8D66"/>
<rect x="263.823" y="223.235" width="20.2941" height="20.2941" fill="#8B8D66"/>
<rect x="192.794" y="273.971" width="10.1471" height="10.1471" fill="#D7C8A6"/>
<rect x="202.941" y="304.412" width="10.1471" height="10.1471" transform="rotate(180 202.941 304.412)" fill="#D7C8A6"/>
<rect x="182.647" y="294.265" width="10.1471" height="10.1471" fill="#D7C8A6"/>
<rect x="182.647" y="304.412" width="10.1471" height="10.1471" fill="#D7C8A6"/>
<rect x="182.647" y="284.118" width="10.1471" height="10.1471" fill="#737119"/>
<rect x="273.971" y="243.529" width="10.1471" height="10.1471" fill="#D7C8A6"/>
<rect x="263.823" y="243.529" width="10.1471" height="10.1471" fill="#737119"/>
<rect x="294.265" y="243.529" width="10.1471" height="10.1471" fill="#D7C8A6"/>
<rect x="284.118" y="243.529" width="10.1471" height="10.1471" fill="#737119"/>
<rect x="304.412" y="243.529" width="10.1471" height="10.1471" fill="#3C3F3C"/>
<rect x="304.412" y="233.382" width="10.1471" height="10.1471" fill="#D7C8A6"/>
<rect x="192.794" y="284.118" width="10.1471" height="10.1471" fill="#737119"/>
<rect x="263.823" y="253.677" width="10.1471" height="10.1471" transform="rotate(180 263.823 253.677)" fill="#D7C8A6"/>
<rect x="202.941" y="263.823" width="10.1471" height="10.1471" fill="#737119"/>
<rect x="202.941" y="273.971" width="10.1471" height="10.1471" transform="rotate(180 202.941 273.971)" fill="#D7C8A6"/>
<rect x="253.677" y="263.823" width="10.1471" height="10.1471" transform="rotate(180 253.677 263.823)" fill="#D7C8A6"/>
<rect x="263.823" y="243.529" width="10.1471" height="10.1471" transform="rotate(180 263.823 243.529)" fill="#737119"/>
<rect x="243.529" y="233.382" width="10.1471" height="10.1471" transform="rotate(180 243.529 233.382)" fill="#737119"/>
<rect x="253.677" y="182.647" width="10.1471" height="10.1471" transform="rotate(180 253.677 182.647)" fill="#737119"/>
<rect x="253.677" y="233.382" width="10.1471" height="10.1471" transform="rotate(180 253.677 233.382)" fill="#3C3F3C"/>
<rect x="253.677" y="253.677" width="20.2941" height="20.2941" transform="rotate(180 253.677 253.677)" fill="#B4A885"/>
<rect x="253.677" y="223.235" width="20.2941" height="20.2941" transform="rotate(180 253.677 223.235)" fill="#8B8D66"/>
<rect x="233.382" y="243.529" width="20.2941" height="20.2941" transform="rotate(180 233.382 243.529)" fill="#8B8D66"/>
<rect x="202.941" y="202.941" width="20.2941" height="20.2941" transform="rotate(180 202.941 202.941)" fill="#8B8D66"/>
<rect x="40.5881" y="111.618" width="10.1471" height="10.1471" transform="rotate(180 40.5881 111.618)" fill="#D7C8A6"/>
<rect x="50.7354" y="91.3235" width="10.1471" height="10.1471" transform="rotate(180 50.7354 91.3235)" fill="#D7C8A6"/>
<rect x="30.4412" y="131.912" width="10.1471" height="10.1471" transform="rotate(180 30.4412 131.912)" fill="#D7C8A6"/>
<rect x="182.647" y="162.353" width="10.1471" height="10.1471" transform="rotate(180 182.647 162.353)" fill="#D7C8A6"/>
<rect x="50.7354" y="111.618" width="10.1471" height="10.1471" transform="rotate(180 50.7354 111.618)" fill="#737119"/>
<rect x="50.7354" y="101.47" width="10.1471" height="10.1471" transform="rotate(180 50.7354 101.47)" fill="#737119"/>
<rect x="152.206" y="162.353" width="10.1471" height="10.1471" transform="rotate(180 152.206 162.353)" fill="#3C3F3C"/>
<rect x="50.7354" y="131.912" width="10.1471" height="10.1471" transform="rotate(180 50.7354 131.912)" fill="#3C3F3C"/>
<rect x="172.5" y="162.353" width="20.2941" height="20.2941" transform="rotate(180 172.5 162.353)" fill="#8B8D66"/>
<rect x="40.5881" y="121.765" width="10.1471" height="10.1471" transform="rotate(180 40.5881 121.765)" fill="#D7C8A6"/>
<rect x="182.647" y="152.206" width="10.1471" height="10.1471" transform="rotate(180 182.647 152.206)" fill="#D7C8A6"/>
<rect x="192.794" y="142.059" width="10.1471" height="10.1471" transform="rotate(180 192.794 142.059)" fill="#D7C8A6"/>
<rect x="40.5881" y="101.47" width="10.1471" height="10.1471" transform="rotate(180 40.5881 101.47)" fill="#737119"/>
<rect x="142.059" y="152.206" width="10.1471" height="10.1471" transform="rotate(180 142.059 152.206)" fill="#8B8D66"/>
<rect x="30.4412" y="121.765" width="10.1471" height="10.1471" transform="rotate(180 30.4412 121.765)" fill="#3C3F3C"/>
<rect x="213.088" y="142.059" width="20.2941" height="20.2941" transform="rotate(180 213.088 142.059)" fill="#8B8D66"/>
<rect x="131.912" y="182.647" width="20.2941" height="20.2941" transform="rotate(180 131.912 182.647)" fill="#8B8D66"/>
</svg>
