<svg width="771" height="527" viewBox="0 0 771 527" fill="none" xmlns="http://www.w3.org/2000/svg">
<g opacity="0.2">
<rect x="66.8234" y="25.8235" width="16.7059" height="16.7059" fill="#D7C8A6"/>
<rect x="83.5295" y="9.11768" width="16.7059" height="16.7059" fill="#D7C8A6"/>
<rect x="116.941" y="9.11768" width="16.7059" height="16.7059" fill="#D7C8A6"/>
<rect x="133.647" y="-7.58838" width="16.7059" height="16.7059" fill="#D7C8A6"/>
<rect x="116.941" y="25.8235" width="16.7059" height="16.7059" fill="#737119"/>
<rect x="133.647" y="9.11768" width="16.7059" height="16.7059" fill="#D7C8A6"/>
<rect x="183.765" y="25.8235" width="16.7059" height="16.7059" fill="#D7C8A6"/>
<rect x="233.882" y="25.8235" width="16.7059" height="16.7059" fill="#D7C8A6"/>
<rect x="334.118" y="25.8235" width="16.7059" height="16.7059" fill="#D7C8A6"/>
<rect x="317.411" y="9.11768" width="16.7059" height="16.7059" fill="#D7C8A6"/>
<rect x="133.647" y="25.8235" width="16.7059" height="16.7059" fill="#737119"/>
<rect x="100.235" y="-7.58838" width="16.7059" height="16.7059" fill="#737119"/>
<rect x="66.8234" y="9.11768" width="16.7059" height="16.7059" fill="#737119"/>
<rect x="116.941" y="-7.58838" width="16.7059" height="16.7059" fill="#8B8D66"/>
<rect x="150.353" y="-7.58838" width="16.7059" height="16.7059" fill="#737119"/>
<rect x="167.059" y="-7.58838" width="16.7059" height="16.7059" fill="#3C3F3C"/>
<rect x="183.765" y="-7.58838" width="16.7059" height="16.7059" fill="#737119"/>
<rect x="183.765" y="9.11768" width="16.7059" height="16.7059" fill="#3C3F3C"/>
<rect x="233.882" y="9.11768" width="16.7059" height="16.7059" fill="#3C3F3C"/>
<rect x="100.235" y="9.11768" width="16.7059" height="16.7059" fill="#3C3F3C"/>
<rect x="100.235" y="59.2354" width="16.7059" height="16.7059" fill="#D7C8A6"/>
<rect x="83.5295" y="59.2354" width="16.7059" height="16.7059" fill="#3C3F3C"/>
<rect x="200.47" y="59.2354" width="16.7059" height="16.7059" fill="#D7C8A6"/>
<rect x="183.765" y="42.5295" width="16.7059" height="16.7059" fill="#737119"/>
<rect x="200.47" y="42.5295" width="16.7059" height="16.7059" fill="#8B8D66"/>
<rect x="183.765" y="59.2354" width="16.7059" height="16.7059" fill="#3C3F3C"/>
<rect x="83.5295" y="25.8235" width="33.4118" height="33.4118" fill="#B4A885"/>
<rect x="150.353" y="42.5295" width="33.4118" height="33.4118" fill="#B4A885"/>
<rect x="116.941" y="42.5295" width="33.4118" height="33.4118" fill="#8B8D66"/>
<rect x="83.5295" y="75.9412" width="33.4118" height="33.4118" fill="#8B8D66"/>
<rect x="83.5295" y="109.353" width="33.4118" height="33.4118" fill="#8B8D66"/>
<rect x="116.941" y="109.353" width="33.4118" height="33.4118" fill="#8B8D66"/>
<rect x="116.941" y="142.765" width="33.4118" height="33.4118" fill="#8B8D66"/>
<rect x="150.353" y="9.11768" width="33.4118" height="33.4118" fill="#8B8D66"/>
<rect x="133.647" y="75.9412" width="16.7059" height="16.7059" fill="#D7C8A6"/>
<rect x="167.059" y="75.9412" width="16.7059" height="16.7059" fill="#D7C8A6"/>
<rect x="183.765" y="75.9412" width="16.7059" height="16.7059" fill="#D7C8A6"/>
<rect x="116.941" y="75.9412" width="16.7059" height="16.7059" fill="#737119"/>
<rect x="233.882" y="75.9412" width="16.7059" height="16.7059" fill="#3C3F3C"/>
<rect x="150.353" y="75.9412" width="16.7059" height="16.7059" fill="#8B8D66"/>
<rect x="200.47" y="75.9412" width="33.4118" height="33.4118" fill="#8B8D66"/>
<rect x="150.353" y="92.6472" width="16.7059" height="16.7059" fill="#D7C8A6"/>
<rect x="183.765" y="92.6472" width="16.7059" height="16.7059" fill="#D7C8A6"/>
<rect x="200.47" y="109.353" width="16.7059" height="16.7059" fill="#D7C8A6"/>
<rect x="150.353" y="109.353" width="16.7059" height="16.7059" fill="#737119"/>
<rect x="150.353" y="126.059" width="16.7059" height="16.7059" fill="#737119"/>
<rect x="217.176" y="109.353" width="16.7059" height="16.7059" fill="#8B8D66"/>
<rect x="167.059" y="92.6472" width="16.7059" height="16.7059" fill="#8B8D66"/>
<rect x="150.353" y="142.765" width="16.7059" height="16.7059" fill="#D7C8A6"/>
<rect x="183.765" y="142.765" width="16.7059" height="16.7059" fill="#D7C8A6"/>
<rect x="233.882" y="192.882" width="16.7059" height="16.7059" fill="#D7C8A6"/>
<rect x="167.059" y="142.765" width="16.7059" height="16.7059" fill="#3C3F3C"/>
<rect x="167.059" y="109.353" width="33.4118" height="33.4118" fill="#8B8D66"/>
<rect x="200.47" y="9.11768" width="33.4118" height="33.4118" fill="#8B8D66"/>
<rect x="217.176" y="42.5295" width="33.4118" height="33.4118" fill="#8B8D66"/>
<rect x="250.589" y="25.8235" width="33.4118" height="33.4118" fill="#8B8D66"/>
<rect x="284" y="9.11768" width="33.4118" height="33.4118" fill="#8B8D66"/>
<rect x="250.589" y="75.9412" width="16.7059" height="16.7059" fill="#D7C8A6"/>
<rect x="267.294" y="59.2354" width="16.7059" height="16.7059" fill="#D7C8A6"/>
<rect x="150.353" y="276.412" width="16.7059" height="16.7059" fill="#D7C8A6"/>
<rect x="317.411" y="42.5295" width="16.7059" height="16.7059" fill="#D7C8A6"/>
<rect x="300.706" y="75.9412" width="16.7059" height="16.7059" fill="#737119"/>
<rect x="317.411" y="59.2354" width="16.7059" height="16.7059" fill="#D7C8A6"/>
<rect x="367.53" y="75.9412" width="16.7059" height="16.7059" fill="#D7C8A6"/>
<rect x="317.411" y="75.9412" width="16.7059" height="16.7059" fill="#737119"/>
<rect x="317.411" y="25.8235" width="16.7059" height="16.7059" fill="#737119"/>
<rect x="133.647" y="259.706" width="16.7059" height="16.7059" fill="#737119"/>
<rect x="250.589" y="59.2354" width="16.7059" height="16.7059" fill="#737119"/>
<rect x="150.353" y="259.706" width="16.7059" height="16.7059" fill="#3C3F3C"/>
<rect x="200.47" y="-7.58838" width="16.7059" height="16.7059" fill="#737119"/>
<rect x="217.176" y="-7.58838" width="16.7059" height="16.7059" fill="#3C3F3C"/>
<rect x="250.589" y="9.11768" width="16.7059" height="16.7059" fill="#737119"/>
<rect x="267.294" y="9.11768" width="16.7059" height="16.7059" fill="#3C3F3C"/>
<rect x="334.118" y="42.5295" width="16.7059" height="16.7059" fill="#737119"/>
<rect x="350.824" y="42.5295" width="16.7059" height="16.7059" fill="#3C3F3C"/>
<rect x="367.53" y="42.5295" width="16.7059" height="16.7059" fill="#737119"/>
<rect x="350.824" y="25.8235" width="16.7059" height="16.7059" fill="#3C3F3C"/>
<rect x="367.53" y="25.8235" width="16.7059" height="16.7059" fill="#737119"/>
<rect x="384.235" y="9.11768" width="16.7059" height="16.7059" fill="#737119"/>
<rect x="367.53" y="59.2354" width="16.7059" height="16.7059" fill="#3C3F3C"/>
<rect x="133.647" y="276.412" width="16.7059" height="16.7059" fill="#3C3F3C"/>
<rect x="116.941" y="276.412" width="16.7059" height="16.7059" fill="#D7C8A6"/>
<rect x="100.235" y="276.412" width="16.7059" height="16.7059" fill="#8B8D66"/>
<rect x="284" y="109.353" width="16.7059" height="16.7059" fill="#D7C8A6"/>
<rect x="267.294" y="109.353" width="16.7059" height="16.7059" fill="#3C3F3C"/>
<rect x="33.4119" y="226.294" width="16.7059" height="16.7059" fill="#D7C8A6"/>
<rect x="16.7057" y="209.588" width="16.7059" height="16.7059" fill="#737119"/>
<rect x="66.8234" y="142.765" width="16.7059" height="16.7059" fill="#3C3F3C"/>
<rect y="226.294" width="16.7059" height="16.7059" fill="#737119"/>
<rect y="243" width="16.7059" height="16.7059" fill="#737119"/>
<rect x="16.7057" y="226.294" width="16.7059" height="16.7059" fill="#3C3F3C"/>
<rect x="367.53" y="109.353" width="16.7059" height="16.7059" fill="#8B8D66"/>
<rect x="267.294" y="75.9412" width="33.4118" height="33.4118" fill="#B4A885"/>
<rect x="334.118" y="92.6472" width="33.4118" height="33.4118" fill="#B4A885"/>
<rect x="300.706" y="192.882" width="33.4118" height="33.4118" fill="#B4A885"/>
<rect x="267.294" y="159.47" width="33.4118" height="33.4118" fill="#B4A885"/>
<rect x="233.882" y="159.47" width="33.4118" height="33.4118" fill="#B4A885"/>
<rect x="233.882" y="126.059" width="33.4118" height="33.4118" fill="#B4A885"/>
<rect x="233.882" y="92.6472" width="33.4118" height="33.4118" fill="#B4A885"/>
<rect x="300.706" y="92.6472" width="33.4118" height="33.4118" fill="#8B8D66"/>
<rect x="267.294" y="126.059" width="33.4118" height="33.4118" fill="#8B8D66"/>
<rect x="334.118" y="59.2354" width="33.4118" height="33.4118" fill="#8B8D66"/>
<rect x="150.353" y="226.294" width="16.7059" height="16.7059" fill="#D7C8A6"/>
<rect x="350.824" y="126.059" width="16.7059" height="16.7059" fill="#D7C8A6"/>
<rect x="384.235" y="92.6472" width="16.7059" height="16.7059" fill="#D7C8A6"/>
<rect y="209.588" width="16.7059" height="16.7059" fill="#D7C8A6"/>
<rect x="300.706" y="126.059" width="16.7059" height="16.7059" fill="#737119"/>
<rect x="300.706" y="159.47" width="16.7059" height="16.7059" fill="#737119"/>
<rect x="417.647" y="126.059" width="16.7059" height="16.7059" fill="#3C3F3C"/>
<rect x="167.059" y="226.294" width="16.7059" height="16.7059" fill="#3C3F3C"/>
<rect x="384.235" y="126.059" width="33.4118" height="33.4118" fill="#8B8D66"/>
<rect x="167.059" y="243" width="16.7059" height="16.7059" fill="#D7C8A6"/>
<rect x="367.53" y="92.6472" width="16.7059" height="16.7059" fill="#D7C8A6"/>
<rect x="384.235" y="159.47" width="16.7059" height="16.7059" fill="#D7C8A6"/>
<rect x="150.353" y="243" width="16.7059" height="16.7059" fill="#737119"/>
<rect x="133.647" y="243" width="16.7059" height="16.7059" fill="#737119"/>
<rect x="83.5295" y="259.706" width="16.7059" height="16.7059" fill="#8B8D66"/>
<rect x="83.5295" y="243" width="16.7059" height="16.7059" fill="#737119"/>
<rect x="16.7057" y="176.177" width="16.7059" height="16.7059" fill="#3C3F3C"/>
<rect x="350.824" y="142.765" width="16.7059" height="16.7059" fill="#3C3F3C"/>
<rect x="350.824" y="159.47" width="33.4118" height="33.4118" fill="#8B8D66"/>
<rect x="384.235" y="59.2354" width="33.4118" height="33.4118" fill="#8B8D66"/>
<rect x="384.235" y="25.8235" width="33.4118" height="33.4118" fill="#8B8D66"/>
<rect x="400.941" y="9.11768" width="16.7059" height="16.7059" fill="#D7C8A6"/>
<rect x="417.647" y="-7.58838" width="16.7059" height="16.7059" fill="#D7C8A6"/>
<rect x="451.059" y="-7.58838" width="16.7059" height="16.7059" fill="#D7C8A6"/>
<rect x="451.059" y="9.11768" width="16.7059" height="16.7059" fill="#737119"/>
<rect x="467.765" y="-7.58838" width="16.7059" height="16.7059" fill="#D7C8A6"/>
<rect x="517.882" y="9.11768" width="16.7059" height="16.7059" fill="#D7C8A6"/>
<rect x="467.765" y="9.11768" width="16.7059" height="16.7059" fill="#737119"/>
<rect x="400.941" y="-7.58838" width="16.7059" height="16.7059" fill="#737119"/>
<rect x="517.882" y="-7.58838" width="16.7059" height="16.7059" fill="#3C3F3C"/>
<rect x="434.353" y="-7.58838" width="16.7059" height="16.7059" fill="#3C3F3C"/>
<rect x="434.353" y="42.5295" width="16.7059" height="16.7059" fill="#D7C8A6"/>
<rect x="417.647" y="42.5295" width="16.7059" height="16.7059" fill="#3C3F3C"/>
<rect x="534.588" y="42.5295" width="16.7059" height="16.7059" fill="#D7C8A6"/>
<rect x="568" y="-7.58838" width="16.7059" height="16.7059" fill="#D7C8A6"/>
<rect x="517.882" y="25.8235" width="16.7059" height="16.7059" fill="#737119"/>
<rect x="534.588" y="25.8235" width="16.7059" height="16.7059" fill="#3C3F3C"/>
<rect x="517.882" y="42.5295" width="16.7059" height="16.7059" fill="#3C3F3C"/>
<rect x="417.647" y="9.11768" width="33.4118" height="33.4118" fill="#B4A885"/>
<rect x="484.47" y="25.8235" width="33.4118" height="33.4118" fill="#B4A885"/>
<rect x="451.059" y="25.8235" width="33.4118" height="33.4118" fill="#8B8D66"/>
<rect x="417.647" y="59.2354" width="33.4118" height="33.4118" fill="#8B8D66"/>
<rect x="484.47" y="-7.58838" width="33.4118" height="33.4118" fill="#8B8D66"/>
<rect x="467.765" y="59.2354" width="16.7059" height="16.7059" fill="#D7C8A6"/>
<rect x="501.176" y="59.2354" width="16.7059" height="16.7059" fill="#D7C8A6"/>
<rect x="517.882" y="59.2354" width="16.7059" height="16.7059" fill="#D7C8A6"/>
<rect x="451.059" y="59.2354" width="16.7059" height="16.7059" fill="#737119"/>
<rect x="568" y="59.2354" width="16.7059" height="16.7059" fill="#3C3F3C"/>
<rect x="484.47" y="59.2354" width="16.7059" height="16.7059" fill="#3C3F3C"/>
<rect x="534.588" y="59.2354" width="33.4118" height="33.4118" fill="#8B8D66"/>
<rect x="484.47" y="75.9412" width="16.7059" height="16.7059" fill="#D7C8A6"/>
<rect x="517.882" y="75.9412" width="16.7059" height="16.7059" fill="#D7C8A6"/>
<rect x="534.588" y="92.6472" width="16.7059" height="16.7059" fill="#D7C8A6"/>
<rect x="568" y="75.9412" width="16.7059" height="16.7059" fill="#D7C8A6"/>
<rect x="434.353" y="92.6472" width="33.4118" height="33.4118" fill="#737119"/>
<rect x="400.941" y="92.6472" width="33.4118" height="33.4118" fill="#737119"/>
<rect x="317.411" y="126.059" width="33.4118" height="33.4118" fill="#737119"/>
<rect x="434.353" y="126.059" width="33.4118" height="33.4118" fill="#737119"/>
<rect x="568" y="159.47" width="33.4118" height="33.4118" fill="#737119"/>
<rect x="200.47" y="126.059" width="33.4118" height="33.4118" fill="#737119"/>
<rect x="334.118" y="192.882" width="33.4118" height="33.4118" fill="#737119"/>
<rect x="284" y="42.5295" width="33.4118" height="33.4118" fill="#737119"/>
<rect x="618.118" y="75.9412" width="16.7059" height="16.7059" fill="#737119"/>
<rect x="601.412" y="75.9412" width="16.7059" height="16.7059" fill="#737119"/>
<rect x="618.118" y="59.2354" width="16.7059" height="16.7059" fill="#737119"/>
<rect x="584.706" y="75.9412" width="16.7059" height="16.7059" fill="#737119"/>
<rect x="584.706" y="92.6472" width="16.7059" height="16.7059" fill="#3C3F3C"/>
<rect x="501.176" y="75.9412" width="16.7059" height="16.7059" fill="#3C3F3C"/>
<rect x="501.176" y="92.6472" width="33.4118" height="33.4118" fill="#8B8D66"/>
<rect x="534.588" y="-7.58838" width="33.4118" height="33.4118" fill="#8B8D66"/>
<rect x="400.941" y="176.177" width="16.7059" height="16.7059" fill="#D7C8A6"/>
<rect x="417.647" y="159.47" width="16.7059" height="16.7059" fill="#D7C8A6"/>
<rect x="434.353" y="159.47" width="16.7059" height="16.7059" fill="#D7C8A6"/>
<rect x="634.824" y="259.706" width="16.7059" height="16.7059" fill="#D7C8A6"/>
<rect x="618.118" y="293.118" width="16.7059" height="16.7059" fill="#D7C8A6"/>
<rect x="33.4119" y="192.882" width="16.7059" height="16.7059" fill="#D7C8A6"/>
<rect x="467.765" y="142.765" width="16.7059" height="16.7059" fill="#D7C8A6"/>
<rect x="451.059" y="176.177" width="16.7059" height="16.7059" fill="#737119"/>
<rect x="467.765" y="159.47" width="16.7059" height="16.7059" fill="#D7C8A6"/>
<rect x="517.882" y="176.177" width="16.7059" height="16.7059" fill="#D7C8A6"/>
<rect x="467.765" y="176.177" width="16.7059" height="16.7059" fill="#737119"/>
<rect x="467.765" y="126.059" width="16.7059" height="16.7059" fill="#737119"/>
<rect x="16.7057" y="176.177" width="16.7059" height="16.7059" fill="#737119"/>
<rect x="16.7057" y="159.47" width="16.7059" height="16.7059" fill="#737119"/>
<rect x="400.941" y="159.47" width="16.7059" height="16.7059" fill="#737119"/>
<rect x="33.4119" y="176.177" width="16.7059" height="16.7059" fill="#3C3F3C"/>
<rect x="50.1177" y="159.47" width="16.7059" height="16.7059" fill="#3C3F3C"/>
<rect x="484.47" y="142.765" width="16.7059" height="16.7059" fill="#737119"/>
<rect x="501.176" y="142.765" width="16.7059" height="16.7059" fill="#737119"/>
<rect x="517.882" y="142.765" width="16.7059" height="16.7059" fill="#737119"/>
<rect x="517.882" y="159.47" width="16.7059" height="16.7059" fill="#3C3F3C"/>
<rect x="16.7057" y="192.882" width="16.7059" height="16.7059" fill="#3C3F3C"/>
<rect x="434.353" y="209.588" width="16.7059" height="16.7059" fill="#D7C8A6"/>
<rect x="417.647" y="209.588" width="16.7059" height="16.7059" fill="#737119"/>
<rect x="534.588" y="209.588" width="16.7059" height="16.7059" fill="#D7C8A6"/>
<rect x="517.882" y="192.882" width="16.7059" height="16.7059" fill="#737119"/>
<rect x="534.588" y="192.882" width="16.7059" height="16.7059" fill="#3C3F3C"/>
<rect x="517.882" y="209.588" width="16.7059" height="16.7059" fill="#3C3F3C"/>
<rect x="417.647" y="176.177" width="33.4118" height="33.4118" fill="#B4A885"/>
<rect x="484.47" y="192.882" width="33.4118" height="33.4118" fill="#B4A885"/>
<rect x="451.059" y="192.882" width="33.4118" height="33.4118" fill="#8B8D66"/>
<rect x="417.647" y="226.294" width="33.4118" height="33.4118" fill="#8B8D66"/>
<rect x="417.647" y="259.706" width="33.4118" height="33.4118" fill="#8B8D66"/>
<rect x="451.059" y="259.706" width="33.4118" height="33.4118" fill="#8B8D66"/>
<rect x="484.47" y="159.47" width="33.4118" height="33.4118" fill="#8B8D66"/>
<rect x="183.765" y="192.882" width="33.4118" height="33.4118" fill="#B4A885"/>
<rect x="150.353" y="159.47" width="33.4118" height="33.4118" fill="#B4A885"/>
<rect x="116.941" y="176.177" width="33.4118" height="33.4118" fill="#B4A885"/>
<rect x="83.5295" y="176.177" width="33.4118" height="33.4118" fill="#B4A885"/>
<rect x="50.1177" y="176.177" width="33.4118" height="33.4118" fill="#B4A885"/>
<rect x="16.7057" y="243" width="33.4118" height="33.4118" fill="#B4A885"/>
<rect x="83.5295" y="142.765" width="33.4118" height="33.4118" fill="#B4A885"/>
<rect x="116.941" y="209.588" width="33.4118" height="33.4118" fill="#B4A885"/>
<rect x="150.353" y="192.882" width="33.4118" height="33.4118" fill="#8B8D66"/>
<rect x="183.765" y="159.47" width="33.4118" height="33.4118" fill="#8B8D66"/>
<rect x="50.1177" y="243" width="33.4118" height="33.4118" fill="#8B8D66"/>
<rect x="100.235" y="243" width="33.4118" height="33.4118" fill="#8B8D66"/>
<rect x="83.5295" y="209.588" width="33.4118" height="33.4118" fill="#8B8D66"/>
<rect x="50.1177" y="209.588" width="33.4118" height="33.4118" fill="#8B8D66"/>
<rect x="467.765" y="226.294" width="16.7059" height="16.7059" fill="#D7C8A6"/>
<rect x="501.176" y="226.294" width="16.7059" height="16.7059" fill="#D7C8A6"/>
<rect x="517.882" y="226.294" width="16.7059" height="16.7059" fill="#D7C8A6"/>
<rect x="451.059" y="226.294" width="16.7059" height="16.7059" fill="#737119"/>
<rect x="568" y="226.294" width="16.7059" height="16.7059" fill="#3C3F3C"/>
<rect x="484.47" y="226.294" width="16.7059" height="16.7059" fill="#3C3F3C"/>
<rect x="534.588" y="226.294" width="33.4118" height="33.4118" fill="#8B8D66"/>
<rect x="484.47" y="243" width="16.7059" height="16.7059" fill="#D7C8A6"/>
<rect x="517.882" y="243" width="16.7059" height="16.7059" fill="#D7C8A6"/>
<rect x="568" y="243" width="16.7059" height="16.7059" fill="#D7C8A6"/>
<rect x="467.765" y="243" width="16.7059" height="16.7059" fill="#737119"/>
<rect x="584.706" y="243" width="16.7059" height="16.7059" fill="#3C3F3C"/>
<rect x="501.176" y="259.706" width="33.4118" height="33.4118" fill="#8B8D66"/>
<rect x="534.588" y="259.706" width="33.4118" height="33.4118" fill="#8B8D66"/>
<rect x="568" y="259.706" width="33.4118" height="33.4118" fill="#8B8D66"/>
<rect x="534.588" y="159.47" width="33.4118" height="33.4118" fill="#8B8D66"/>
<rect x="735.059" y="209.588" width="16.7059" height="16.7059" transform="rotate(180 735.059 209.588)" fill="#D7C8A6"/>
<rect x="751.765" y="142.765" width="16.7059" height="16.7059" transform="rotate(180 751.765 142.765)" fill="#D7C8A6"/>
<rect x="684.941" y="226.294" width="16.7059" height="16.7059" transform="rotate(180 684.941 226.294)" fill="#D7C8A6"/>
<rect x="668.235" y="243" width="16.7059" height="16.7059" transform="rotate(180 668.235 243)" fill="#D7C8A6"/>
<rect x="684.941" y="209.588" width="16.7059" height="16.7059" transform="rotate(180 684.941 209.588)" fill="#737119"/>
<rect x="668.235" y="209.588" width="16.7059" height="16.7059" transform="rotate(180 668.235 209.588)" fill="#737119"/>
<rect x="668.235" y="226.294" width="16.7059" height="16.7059" transform="rotate(180 668.235 226.294)" fill="#737119"/>
<rect x="668.235" y="259.706" width="16.7059" height="16.7059" transform="rotate(180 668.235 259.706)" fill="#737119"/>
<rect x="701.647" y="243" width="16.7059" height="16.7059" transform="rotate(180 701.647 243)" fill="#737119"/>
<rect x="684.941" y="243" width="16.7059" height="16.7059" transform="rotate(180 684.941 243)" fill="#3C3F3C"/>
<rect x="651.53" y="243" width="16.7059" height="16.7059" transform="rotate(180 651.53 243)" fill="#737119"/>
<rect x="618.118" y="226.294" width="16.7059" height="16.7059" transform="rotate(180 618.118 226.294)" fill="#3C3F3C"/>
<rect x="701.647" y="176.177" width="16.7059" height="16.7059" transform="rotate(180 701.647 176.177)" fill="#D7C8A6"/>
<rect x="651.53" y="192.882" width="16.7059" height="16.7059" transform="rotate(180 651.53 192.882)" fill="#D7C8A6"/>
<rect x="718.353" y="176.177" width="16.7059" height="16.7059" transform="rotate(180 718.353 176.177)" fill="#737119"/>
<rect x="568" y="226.294" width="16.7059" height="16.7059" transform="rotate(180 568 226.294)" fill="#D7C8A6"/>
<rect x="618.118" y="209.588" width="16.7059" height="16.7059" transform="rotate(180 618.118 209.588)" fill="#737119"/>
<rect x="618.118" y="176.177" width="16.7059" height="16.7059" transform="rotate(180 618.118 176.177)" fill="#3C3F3C"/>
<rect x="718.353" y="209.588" width="33.4118" height="33.4118" transform="rotate(180 718.353 209.588)" fill="#B4A885"/>
<rect x="651.53" y="176.177" width="33.4118" height="33.4118" transform="rotate(180 651.53 176.177)" fill="#B4A885"/>
<rect x="684.941" y="192.882" width="33.4118" height="33.4118" transform="rotate(180 684.941 192.882)" fill="#8B8D66"/>
<rect x="718.353" y="159.47" width="33.4118" height="33.4118" transform="rotate(180 718.353 159.47)" fill="#8B8D66"/>
<rect x="668.235" y="126.059" width="33.4118" height="33.4118" transform="rotate(180 668.235 126.059)" fill="#8B8D66"/>
<rect x="651.53" y="226.294" width="33.4118" height="33.4118" transform="rotate(180 651.53 226.294)" fill="#8B8D66"/>
<rect x="634.824" y="259.706" width="33.4118" height="33.4118" transform="rotate(180 634.824 259.706)" fill="#8B8D66"/>
<rect x="634.824" y="293.118" width="33.4118" height="33.4118" transform="rotate(180 634.824 293.118)" fill="#8B8D66"/>
<rect x="668.235" y="159.47" width="16.7059" height="16.7059" transform="rotate(180 668.235 159.47)" fill="#D7C8A6"/>
<rect x="735.059" y="126.059" width="16.7059" height="16.7059" transform="rotate(180 735.059 126.059)" fill="#D7C8A6"/>
<rect x="618.118" y="159.47" width="16.7059" height="16.7059" transform="rotate(180 618.118 159.47)" fill="#D7C8A6"/>
<rect x="684.941" y="159.47" width="16.7059" height="16.7059" transform="rotate(180 684.941 159.47)" fill="#737119"/>
<rect x="534.588" y="142.765" width="16.7059" height="16.7059" transform="rotate(180 534.588 142.765)" fill="#3C3F3C"/>
<rect x="735.059" y="192.882" width="16.7059" height="16.7059" transform="rotate(180 735.059 192.882)" fill="#3C3F3C"/>
<rect x="601.412" y="159.47" width="33.4118" height="33.4118" transform="rotate(180 601.412 159.47)" fill="#8B8D66"/>
<rect x="684.941" y="126.059" width="16.7059" height="16.7059" transform="rotate(180 684.941 126.059)" fill="#D7C8A6"/>
<rect x="718.353" y="126.059" width="16.7059" height="16.7059" transform="rotate(180 718.353 126.059)" fill="#D7C8A6"/>
<rect x="618.118" y="142.765" width="16.7059" height="16.7059" transform="rotate(180 618.118 142.765)" fill="#D7C8A6"/>
<rect x="601.412" y="126.059" width="16.7059" height="16.7059" transform="rotate(180 601.412 126.059)" fill="#D7C8A6"/>
<rect x="668.235" y="142.765" width="16.7059" height="16.7059" transform="rotate(180 668.235 142.765)" fill="#737119"/>
<rect x="618.118" y="192.882" width="16.7059" height="16.7059" transform="rotate(180 618.118 192.882)" fill="#737119"/>
<rect x="568" y="209.588" width="16.7059" height="16.7059" transform="rotate(180 568 209.588)" fill="#737119"/>
<rect x="701.647" y="126.059" width="16.7059" height="16.7059" transform="rotate(180 701.647 126.059)" fill="#737119"/>
<rect x="551.294" y="126.059" width="16.7059" height="16.7059" transform="rotate(180 551.294 126.059)" fill="#3C3F3C"/>
<rect x="634.824" y="142.765" width="16.7059" height="16.7059" transform="rotate(180 634.824 142.765)" fill="#3C3F3C"/>
<rect x="634.824" y="126.059" width="33.4118" height="33.4118" transform="rotate(180 634.824 126.059)" fill="#8B8D66"/>
<rect x="584.706" y="126.059" width="33.4118" height="33.4118" transform="rotate(180 584.706 126.059)" fill="#8B8D66"/>
<rect x="568" y="159.47" width="33.4118" height="33.4118" transform="rotate(180 568 159.47)" fill="#8B8D66"/>
<rect x="601.412" y="226.294" width="33.4118" height="33.4118" transform="rotate(180 601.412 226.294)" fill="#8B8D66"/>
<rect x="568" y="309.823" width="16.7059" height="16.7059" fill="#D7C8A6"/>
<rect x="568" y="293.118" width="16.7059" height="16.7059" fill="#737119"/>
<rect x="584.706" y="343.235" width="16.7059" height="16.7059" fill="#D7C8A6"/>
<rect x="601.412" y="326.529" width="16.7059" height="16.7059" fill="#D7C8A6"/>
<rect x="568" y="326.529" width="16.7059" height="16.7059" fill="#737119"/>
<rect x="634.824" y="343.235" width="16.7059" height="16.7059" fill="#737119"/>
<rect x="467.765" y="393.353" width="16.7059" height="16.7059" fill="#737119"/>
<rect x="584.706" y="326.529" width="16.7059" height="16.7059" fill="#3C3F3C"/>
<rect x="618.118" y="376.647" width="16.7059" height="16.7059" fill="#3C3F3C"/>
<rect x="568" y="343.235" width="16.7059" height="16.7059" fill="#3C3F3C"/>
<rect x="467.765" y="376.647" width="16.7059" height="16.7059" fill="#D7C8A6"/>
<rect x="451.059" y="376.647" width="16.7059" height="16.7059" fill="#3C3F3C"/>
<rect x="534.588" y="326.529" width="33.4118" height="33.4118" fill="#B4A885"/>
<rect x="350.824" y="410.059" width="33.4118" height="33.4118" fill="#B4A885"/>
<rect x="484.47" y="376.647" width="33.4118" height="33.4118" fill="#B4A885"/>
<rect x="534.588" y="293.118" width="33.4118" height="33.4118" fill="#8B8D66"/>
<rect x="551.294" y="359.941" width="16.7059" height="16.7059" fill="#D7C8A6"/>
<rect x="568" y="359.941" width="16.7059" height="16.7059" fill="#D7C8A6"/>
<rect x="618.118" y="343.235" width="16.7059" height="16.7059" fill="#3C3F3C"/>
<rect x="601.412" y="343.235" width="16.7059" height="16.7059" fill="#3C3F3C"/>
<rect x="584.706" y="359.941" width="33.4118" height="33.4118" fill="#8B8D66"/>
<rect x="568" y="376.647" width="16.7059" height="16.7059" fill="#D7C8A6"/>
<rect x="584.706" y="393.353" width="16.7059" height="16.7059" fill="#D7C8A6"/>
<rect x="634.824" y="359.941" width="16.7059" height="16.7059" fill="#3C3F3C"/>
<rect x="551.294" y="376.647" width="16.7059" height="16.7059" fill="#3C3F3C"/>
<rect x="517.882" y="326.529" width="16.7059" height="16.7059" fill="#D7C8A6"/>
<rect x="534.588" y="393.353" width="16.7059" height="16.7059" fill="#D7C8A6"/>
<rect x="517.882" y="393.353" width="16.7059" height="16.7059" fill="#3C3F3C"/>
<rect x="551.294" y="393.353" width="16.7059" height="16.7059" fill="#3C3F3C"/>
<rect x="568" y="393.353" width="16.7059" height="16.7059" fill="#3C3F3C"/>
<rect x="618.118" y="460.177" width="16.7059" height="16.7059" fill="#3C3F3C"/>
<rect x="634.824" y="460.177" width="16.7059" height="16.7059" fill="#3C3F3C"/>
<rect x="551.294" y="410.059" width="33.4118" height="33.4118" fill="#8B8D66"/>
<rect x="584.706" y="293.118" width="33.4118" height="33.4118" fill="#8B8D66"/>
<rect x="568" y="460.177" width="16.7059" height="16.7059" fill="#D7C8A6"/>
<rect x="568" y="443.471" width="16.7059" height="16.7059" fill="#3C3F3C"/>
<rect x="584.706" y="493.588" width="16.7059" height="16.7059" fill="#D7C8A6"/>
<rect x="601.412" y="476.882" width="16.7059" height="16.7059" fill="#D7C8A6"/>
<rect x="651.53" y="476.882" width="16.7059" height="16.7059" fill="#D7C8A6"/>
<rect x="517.882" y="460.177" width="16.7059" height="16.7059" fill="#D7C8A6"/>
<rect x="568" y="476.882" width="16.7059" height="16.7059" fill="#737119"/>
<rect x="634.824" y="476.882" width="16.7059" height="16.7059" fill="#737119"/>
<rect x="584.706" y="476.882" width="16.7059" height="16.7059" fill="#3C3F3C"/>
<rect x="651.53" y="460.177" width="16.7059" height="16.7059" fill="#3C3F3C"/>
<rect x="517.882" y="443.471" width="16.7059" height="16.7059" fill="#3C3F3C"/>
<rect x="534.588" y="476.882" width="16.7059" height="16.7059" fill="#737119"/>
<rect x="517.882" y="426.765" width="16.7059" height="16.7059" fill="#737119"/>
<rect x="501.176" y="443.471" width="16.7059" height="16.7059" fill="#737119"/>
<rect x="501.176" y="460.177" width="16.7059" height="16.7059" fill="#D7C8A6"/>
<rect x="484.47" y="443.471" width="16.7059" height="16.7059" fill="#737119"/>
<rect x="551.294" y="476.882" width="16.7059" height="16.7059" fill="#3C3F3C"/>
<rect x="534.588" y="426.765" width="16.7059" height="16.7059" fill="#3C3F3C"/>
<rect x="584.706" y="426.765" width="16.7059" height="16.7059" fill="#3C3F3C"/>
<rect x="568" y="493.588" width="16.7059" height="16.7059" fill="#3C3F3C"/>
<rect x="534.588" y="493.588" width="33.4118" height="33.4118" fill="#B4A885"/>
<rect x="534.588" y="443.471" width="33.4118" height="33.4118" fill="#8B8D66"/>
<rect x="584.706" y="443.471" width="33.4118" height="33.4118" fill="#8B8D66"/>
<rect x="785.176" y="309.823" width="16.7059" height="16.7059" transform="rotate(180 785.176 309.823)" fill="#D7C8A6"/>
<rect x="735.059" y="343.235" width="16.7059" height="16.7059" transform="rotate(180 735.059 343.235)" fill="#D7C8A6"/>
<rect x="718.353" y="359.941" width="16.7059" height="16.7059" transform="rotate(180 718.353 359.941)" fill="#D7C8A6"/>
<rect x="735.059" y="326.529" width="16.7059" height="16.7059" transform="rotate(180 735.059 326.529)" fill="#737119"/>
<rect x="718.353" y="343.235" width="16.7059" height="16.7059" transform="rotate(180 718.353 343.235)" fill="#D7C8A6"/>
<rect x="668.235" y="326.529" width="16.7059" height="16.7059" transform="rotate(180 668.235 326.529)" fill="#D7C8A6"/>
<rect x="718.353" y="326.529" width="16.7059" height="16.7059" transform="rotate(180 718.353 326.529)" fill="#737119"/>
<rect x="785.176" y="293.118" width="16.7059" height="16.7059" transform="rotate(180 785.176 293.118)" fill="#737119"/>
<rect x="768.47" y="343.235" width="16.7059" height="16.7059" transform="rotate(180 768.47 343.235)" fill="#737119"/>
<rect x="735.059" y="359.941" width="16.7059" height="16.7059" transform="rotate(180 735.059 359.941)" fill="#3C3F3C"/>
<rect x="701.647" y="359.941" width="16.7059" height="16.7059" transform="rotate(180 701.647 359.941)" fill="#737119"/>
<rect x="684.941" y="359.941" width="16.7059" height="16.7059" transform="rotate(180 684.941 359.941)" fill="#3C3F3C"/>
<rect x="668.235" y="359.941" width="16.7059" height="16.7059" transform="rotate(180 668.235 359.941)" fill="#737119"/>
<rect x="668.235" y="376.647" width="16.7059" height="16.7059" transform="rotate(180 668.235 376.647)" fill="#737119"/>
<rect x="668.235" y="343.235" width="16.7059" height="16.7059" transform="rotate(180 668.235 343.235)" fill="#3C3F3C"/>
<rect x="751.765" y="343.235" width="16.7059" height="16.7059" transform="rotate(180 751.765 343.235)" fill="#3C3F3C"/>
<rect x="684.941" y="142.765" width="16.7059" height="16.7059" transform="rotate(180 684.941 142.765)" fill="#D7C8A6"/>
<rect x="651.53" y="259.706" width="16.7059" height="16.7059" transform="rotate(180 651.53 259.706)" fill="#737119"/>
<rect x="651.53" y="293.118" width="16.7059" height="16.7059" transform="rotate(180 651.53 293.118)" fill="#D7C8A6"/>
<rect x="634.824" y="376.647" width="16.7059" height="16.7059" transform="rotate(180 634.824 376.647)" fill="#D7C8A6"/>
<rect x="668.235" y="309.823" width="16.7059" height="16.7059" transform="rotate(180 668.235 309.823)" fill="#737119"/>
<rect x="651.53" y="309.823" width="16.7059" height="16.7059" transform="rotate(180 651.53 309.823)" fill="#3C3F3C"/>
<rect x="668.235" y="293.118" width="16.7059" height="16.7059" transform="rotate(180 668.235 293.118)" fill="#3C3F3C"/>
<rect x="768.47" y="326.529" width="33.4118" height="33.4118" transform="rotate(180 768.47 326.529)" fill="#B4A885"/>
<rect x="701.647" y="309.823" width="33.4118" height="33.4118" transform="rotate(180 701.647 309.823)" fill="#B4A885"/>
<rect x="735.059" y="309.823" width="33.4118" height="33.4118" transform="rotate(180 735.059 309.823)" fill="#8B8D66"/>
<rect x="701.647" y="343.235" width="33.4118" height="33.4118" transform="rotate(180 701.647 343.235)" fill="#8B8D66"/>
<rect x="785.176" y="259.706" width="16.7059" height="16.7059" transform="rotate(180 785.176 259.706)" fill="#D7C8A6"/>
<rect x="785.176" y="243" width="16.7059" height="16.7059" transform="rotate(180 785.176 243)" fill="#D7C8A6"/>
<rect x="785.176" y="226.294" width="16.7059" height="16.7059" transform="rotate(180 785.176 226.294)" fill="#737119"/>
<rect x="768.47" y="259.706" width="16.7059" height="16.7059" transform="rotate(180 768.47 259.706)" fill="#737119"/>
<rect x="751.765" y="259.706" width="16.7059" height="16.7059" transform="rotate(180 751.765 259.706)" fill="#3C3F3C"/>
<rect x="785.176" y="142.765" width="16.7059" height="16.7059" transform="rotate(180 785.176 142.765)" fill="#3C3F3C"/>
<rect x="768.47" y="142.765" width="16.7059" height="16.7059" transform="rotate(180 768.47 142.765)" fill="#3C3F3C"/>
<rect x="735.059" y="142.765" width="16.7059" height="16.7059" transform="rotate(180 735.059 142.765)" fill="#3C3F3C"/>
<rect x="768.47" y="209.588" width="33.4118" height="33.4118" transform="rotate(180 768.47 209.588)" fill="#B4A885"/>
<rect x="735.059" y="243" width="33.4118" height="33.4118" transform="rotate(180 735.059 243)" fill="#B4A885"/>
<rect x="735.059" y="276.412" width="33.4118" height="33.4118" transform="rotate(180 735.059 276.412)" fill="#B4A885"/>
<rect x="768.47" y="293.118" width="33.4118" height="33.4118" transform="rotate(180 768.47 293.118)" fill="#B4A885"/>
<rect x="701.647" y="276.412" width="33.4118" height="33.4118" transform="rotate(180 701.647 276.412)" fill="#B4A885"/>
<rect x="501.176" y="126.059" width="33.4118" height="33.4118" transform="rotate(180 501.176 126.059)" fill="#B4A885"/>
<rect x="618.118" y="75.9412" width="33.4118" height="33.4118" transform="rotate(180 618.118 75.9412)" fill="#B4A885"/>
<rect x="584.706" y="59.2354" width="33.4118" height="33.4118" transform="rotate(180 584.706 59.2354)" fill="#B4A885"/>
<rect x="801.882" y="209.588" width="33.4118" height="33.4118" transform="rotate(180 801.882 209.588)" fill="#8B8D66"/>
<rect x="751.765" y="176.177" width="33.4118" height="33.4118" transform="rotate(180 751.765 176.177)" fill="#B4A885"/>
<rect x="785.176" y="176.177" width="33.4118" height="33.4118" transform="rotate(180 785.176 176.177)" fill="#8B8D66"/>
<rect x="768.47" y="243" width="33.4118" height="33.4118" transform="rotate(180 768.47 243)" fill="#8B8D66"/>
<rect x="651.53" y="343.235" width="33.4118" height="33.4118" transform="rotate(180 651.53 343.235)" fill="#8B8D66"/>
<rect x="183.765" y="276.412" width="16.7059" height="16.7059" transform="rotate(180 183.765 276.412)" fill="#D7C8A6"/>
<rect x="400.941" y="293.118" width="16.7059" height="16.7059" transform="rotate(180 400.941 293.118)" fill="#D7C8A6"/>
<rect x="367.53" y="293.118" width="16.7059" height="16.7059" transform="rotate(180 367.53 293.118)" fill="#D7C8A6"/>
<rect x="350.824" y="309.823" width="16.7059" height="16.7059" transform="rotate(180 350.824 309.823)" fill="#D7C8A6"/>
<rect x="367.53" y="276.412" width="16.7059" height="16.7059" transform="rotate(180 367.53 276.412)" fill="#737119"/>
<rect x="350.824" y="293.118" width="16.7059" height="16.7059" transform="rotate(180 350.824 293.118)" fill="#D7C8A6"/>
<rect x="300.706" y="276.412" width="16.7059" height="16.7059" transform="rotate(180 300.706 276.412)" fill="#D7C8A6"/>
<rect x="350.824" y="276.412" width="16.7059" height="16.7059" transform="rotate(180 350.824 276.412)" fill="#737119"/>
<rect x="350.824" y="326.529" width="16.7059" height="16.7059" transform="rotate(180 350.824 326.529)" fill="#737119"/>
<rect x="350.824" y="443.471" width="16.7059" height="16.7059" transform="rotate(180 350.824 443.471)" fill="#D7C8A6"/>
<rect x="350.824" y="426.765" width="16.7059" height="16.7059" transform="rotate(180 350.824 426.765)" fill="#D7C8A6"/>
<rect x="350.824" y="460.177" width="16.7059" height="16.7059" transform="rotate(180 350.824 460.177)" fill="#737119"/>
<rect x="384.235" y="309.823" width="16.7059" height="16.7059" transform="rotate(180 384.235 309.823)" fill="#737119"/>
<rect x="417.647" y="293.118" width="16.7059" height="16.7059" transform="rotate(180 417.647 293.118)" fill="#737119"/>
<rect x="384.235" y="326.529" width="16.7059" height="16.7059" transform="rotate(180 384.235 326.529)" fill="#3C3F3C"/>
<rect x="400.941" y="393.353" width="16.7059" height="16.7059" transform="rotate(180 400.941 393.353)" fill="#737119"/>
<rect x="400.941" y="410.059" width="16.7059" height="16.7059" transform="rotate(180 400.941 410.059)" fill="#3C3F3C"/>
<rect x="334.118" y="309.823" width="16.7059" height="16.7059" transform="rotate(180 334.118 309.823)" fill="#737119"/>
<rect x="317.411" y="309.823" width="16.7059" height="16.7059" transform="rotate(180 317.411 309.823)" fill="#3C3F3C"/>
<rect x="300.706" y="309.823" width="16.7059" height="16.7059" transform="rotate(180 300.706 309.823)" fill="#737119"/>
<rect x="300.706" y="293.118" width="16.7059" height="16.7059" transform="rotate(180 300.706 293.118)" fill="#3C3F3C"/>
<rect x="384.235" y="293.118" width="16.7059" height="16.7059" transform="rotate(180 384.235 293.118)" fill="#3C3F3C"/>
<rect x="384.235" y="410.059" width="16.7059" height="16.7059" transform="rotate(180 384.235 410.059)" fill="#737119"/>
<rect x="384.235" y="393.353" width="16.7059" height="16.7059" transform="rotate(180 384.235 393.353)" fill="#3C3F3C"/>
<rect x="384.235" y="376.647" width="16.7059" height="16.7059" transform="rotate(180 384.235 376.647)" fill="#3C3F3C"/>
<rect x="367.53" y="410.059" width="16.7059" height="16.7059" transform="rotate(180 367.53 410.059)" fill="#3C3F3C"/>
<rect x="300.706" y="460.177" width="16.7059" height="16.7059" transform="rotate(180 300.706 460.177)" fill="#3C3F3C"/>
<rect x="384.235" y="243" width="16.7059" height="16.7059" transform="rotate(180 384.235 243)" fill="#D7C8A6"/>
<rect x="400.941" y="243" width="16.7059" height="16.7059" transform="rotate(180 400.941 243)" fill="#3C3F3C"/>
<rect x="284" y="243" width="16.7059" height="16.7059" transform="rotate(180 284 243)" fill="#D7C8A6"/>
<rect x="300.706" y="259.706" width="16.7059" height="16.7059" transform="rotate(180 300.706 259.706)" fill="#737119"/>
<rect x="267.294" y="243" width="16.7059" height="16.7059" transform="rotate(180 267.294 243)" fill="#737119"/>
<rect x="233.882" y="226.294" width="16.7059" height="16.7059" transform="rotate(180 233.882 226.294)" fill="#737119"/>
<rect x="233.882" y="176.177" width="16.7059" height="16.7059" transform="rotate(180 233.882 176.177)" fill="#737119"/>
<rect x="233.882" y="192.882" width="16.7059" height="16.7059" transform="rotate(180 233.882 192.882)" fill="#737119"/>
<rect x="200.47" y="276.412" width="16.7059" height="16.7059" transform="rotate(180 200.47 276.412)" fill="#737119"/>
<rect x="284" y="259.706" width="16.7059" height="16.7059" transform="rotate(180 284 259.706)" fill="#3C3F3C"/>
<rect x="300.706" y="243" width="16.7059" height="16.7059" transform="rotate(180 300.706 243)" fill="#3C3F3C"/>
<rect x="233.882" y="243" width="16.7059" height="16.7059" transform="rotate(180 233.882 243)" fill="#D7C8A6"/>
<rect x="233.882" y="259.706" width="16.7059" height="16.7059" transform="rotate(180 233.882 259.706)" fill="#D7C8A6"/>
<rect x="250.589" y="243" width="16.7059" height="16.7059" transform="rotate(180 250.589 243)" fill="#3C3F3C"/>
<rect x="400.941" y="276.412" width="33.4118" height="33.4118" transform="rotate(180 400.941 276.412)" fill="#B4A885"/>
<rect x="451.059" y="326.529" width="33.4118" height="33.4118" transform="rotate(180 451.059 326.529)" fill="#B4A885"/>
<rect x="334.118" y="259.706" width="33.4118" height="33.4118" transform="rotate(180 334.118 259.706)" fill="#B4A885"/>
<rect x="367.53" y="326.529" width="16.7059" height="16.7059" transform="rotate(180 367.53 326.529)" fill="#B4A885"/>
<rect x="417.647" y="226.294" width="16.7059" height="16.7059" transform="rotate(180 417.647 226.294)" fill="#B4A885"/>
<rect x="150.353" y="109.353" width="16.7059" height="16.7059" transform="rotate(180 150.353 109.353)" fill="#B4A885"/>
<rect x="133.647" y="109.353" width="16.7059" height="16.7059" transform="rotate(180 133.647 109.353)" fill="#B4A885"/>
<rect x="317.411" y="159.47" width="16.7059" height="16.7059" transform="rotate(180 317.411 159.47)" fill="#B4A885"/>
<rect x="50.1177" y="226.294" width="16.7059" height="16.7059" transform="rotate(180 50.1177 226.294)" fill="#B4A885"/>
<rect x="400.941" y="192.882" width="16.7059" height="16.7059" transform="rotate(180 400.941 192.882)" fill="#B4A885"/>
<rect x="384.235" y="159.47" width="16.7059" height="16.7059" transform="rotate(180 384.235 159.47)" fill="#B4A885"/>
<rect x="384.235" y="142.765" width="16.7059" height="16.7059" transform="rotate(180 384.235 142.765)" fill="#B4A885"/>
<rect x="400.941" y="126.059" width="16.7059" height="16.7059" transform="rotate(180 400.941 126.059)" fill="#B4A885"/>
<rect x="467.765" y="92.6472" width="16.7059" height="16.7059" transform="rotate(180 467.765 92.6472)" fill="#B4A885"/>
<rect x="484.47" y="92.6472" width="16.7059" height="16.7059" transform="rotate(180 484.47 92.6472)" fill="#B4A885"/>
<rect x="517.882" y="142.765" width="16.7059" height="16.7059" transform="rotate(180 517.882 142.765)" fill="#B4A885"/>
<rect x="501.176" y="142.765" width="16.7059" height="16.7059" transform="rotate(180 501.176 142.765)" fill="#B4A885"/>
<rect x="501.176" y="276.412" width="16.7059" height="16.7059" transform="rotate(180 501.176 276.412)" fill="#B4A885"/>
<rect x="417.647" y="243" width="16.7059" height="16.7059" transform="rotate(180 417.647 243)" fill="#B4A885"/>
<rect x="467.765" y="176.177" width="16.7059" height="16.7059" transform="rotate(180 467.765 176.177)" fill="#B4A885"/>
<rect x="434.353" y="159.47" width="16.7059" height="16.7059" transform="rotate(180 434.353 159.47)" fill="#B4A885"/>
<rect x="517.882" y="259.706" width="16.7059" height="16.7059" transform="rotate(180 517.882 259.706)" fill="#B4A885"/>
<rect x="601.412" y="243" width="16.7059" height="16.7059" transform="rotate(180 601.412 243)" fill="#B4A885"/>
<rect x="634.824" y="192.882" width="16.7059" height="16.7059" transform="rotate(180 634.824 192.882)" fill="#B4A885"/>
<rect x="701.647" y="226.294" width="16.7059" height="16.7059" transform="rotate(180 701.647 226.294)" fill="#B4A885"/>
<rect x="651.53" y="142.765" width="16.7059" height="16.7059" transform="rotate(180 651.53 142.765)" fill="#B4A885"/>
<rect x="668.235" y="276.412" width="16.7059" height="16.7059" transform="rotate(180 668.235 276.412)" fill="#B4A885"/>
<rect x="785.176" y="276.412" width="16.7059" height="16.7059" transform="rotate(180 785.176 276.412)" fill="#B4A885"/>
<rect x="367.53" y="259.706" width="33.4118" height="33.4118" transform="rotate(180 367.53 259.706)" fill="#8B8D66"/>
<rect x="400.941" y="226.294" width="33.4118" height="33.4118" transform="rotate(180 400.941 226.294)" fill="#8B8D66"/>
<rect x="451.059" y="309.823" width="16.7059" height="16.7059" fill="#D7C8A6"/>
<rect x="484.47" y="276.412" width="16.7059" height="16.7059" fill="#737119"/>
<rect x="501.176" y="293.118" width="33.4118" height="33.4118" fill="#B4A885"/>
<rect x="467.765" y="326.529" width="33.4118" height="33.4118" fill="#B4A885"/>
<rect x="517.882" y="359.941" width="33.4118" height="33.4118" fill="#B4A885"/>
<rect x="467.765" y="293.118" width="33.4118" height="33.4118" fill="#8B8D66"/>
<rect x="501.176" y="326.529" width="16.7059" height="16.7059" fill="#8B8D66"/>
<rect x="517.882" y="343.235" width="16.7059" height="16.7059" fill="#8B8D66"/>
<rect x="451.059" y="243" width="16.7059" height="16.7059" fill="#8B8D66"/>
<rect x="417.647" y="326.529" width="16.7059" height="16.7059" fill="#8B8D66"/>
<rect x="451.059" y="293.118" width="16.7059" height="16.7059" fill="#8B8D66"/>
<rect x="400.941" y="259.706" width="16.7059" height="16.7059" fill="#8B8D66"/>
<rect x="400.941" y="192.882" width="16.7059" height="16.7059" fill="#8B8D66"/>
<rect x="350.824" y="293.118" width="16.7059" height="16.7059" fill="#8B8D66"/>
<rect x="434.353" y="326.529" width="33.4118" height="33.4118" fill="#8B8D66"/>
<rect x="317.411" y="410.059" width="16.7059" height="16.7059" fill="#D7C8A6"/>
<rect x="334.118" y="460.177" width="16.7059" height="16.7059" transform="rotate(180 334.118 460.177)" fill="#D7C8A6"/>
<rect x="300.706" y="443.471" width="16.7059" height="16.7059" fill="#D7C8A6"/>
<rect x="300.706" y="460.177" width="16.7059" height="16.7059" fill="#D7C8A6"/>
<rect x="300.706" y="426.765" width="16.7059" height="16.7059" fill="#737119"/>
<rect x="451.059" y="359.941" width="16.7059" height="16.7059" fill="#D7C8A6"/>
<rect x="434.353" y="359.941" width="16.7059" height="16.7059" fill="#737119"/>
<rect x="484.47" y="359.941" width="16.7059" height="16.7059" fill="#D7C8A6"/>
<rect x="467.765" y="359.941" width="16.7059" height="16.7059" fill="#737119"/>
<rect x="501.176" y="359.941" width="16.7059" height="16.7059" fill="#3C3F3C"/>
<rect x="501.176" y="343.235" width="16.7059" height="16.7059" fill="#D7C8A6"/>
<rect x="317.411" y="426.765" width="16.7059" height="16.7059" fill="#737119"/>
<rect x="434.353" y="376.647" width="16.7059" height="16.7059" transform="rotate(180 434.353 376.647)" fill="#D7C8A6"/>
<rect x="334.118" y="393.353" width="16.7059" height="16.7059" fill="#737119"/>
<rect x="334.118" y="410.059" width="16.7059" height="16.7059" transform="rotate(180 334.118 410.059)" fill="#D7C8A6"/>
<rect x="417.647" y="393.353" width="16.7059" height="16.7059" transform="rotate(180 417.647 393.353)" fill="#D7C8A6"/>
<rect x="434.353" y="359.941" width="16.7059" height="16.7059" transform="rotate(180 434.353 359.941)" fill="#737119"/>
<rect x="400.941" y="343.235" width="16.7059" height="16.7059" transform="rotate(180 400.941 343.235)" fill="#737119"/>
<rect x="417.647" y="259.706" width="16.7059" height="16.7059" transform="rotate(180 417.647 259.706)" fill="#737119"/>
<rect x="417.647" y="343.235" width="16.7059" height="16.7059" transform="rotate(180 417.647 343.235)" fill="#3C3F3C"/>
<rect x="417.647" y="376.647" width="33.4118" height="33.4118" transform="rotate(180 417.647 376.647)" fill="#B4A885"/>
<rect x="417.647" y="326.529" width="33.4118" height="33.4118" transform="rotate(180 417.647 326.529)" fill="#8B8D66"/>
<rect x="384.235" y="359.941" width="33.4118" height="33.4118" transform="rotate(180 384.235 359.941)" fill="#8B8D66"/>
<rect x="334.118" y="293.118" width="33.4118" height="33.4118" transform="rotate(180 334.118 293.118)" fill="#8B8D66"/>
<rect x="66.8234" y="142.765" width="16.7059" height="16.7059" transform="rotate(180 66.8234 142.765)" fill="#D7C8A6"/>
<rect x="83.5295" y="109.353" width="16.7059" height="16.7059" transform="rotate(180 83.5295 109.353)" fill="#D7C8A6"/>
<rect x="50.1177" y="176.177" width="16.7059" height="16.7059" transform="rotate(180 50.1177 176.177)" fill="#D7C8A6"/>
<rect x="300.706" y="226.294" width="16.7059" height="16.7059" transform="rotate(180 300.706 226.294)" fill="#D7C8A6"/>
<rect x="83.5295" y="142.765" width="16.7059" height="16.7059" transform="rotate(180 83.5295 142.765)" fill="#737119"/>
<rect x="83.5295" y="126.059" width="16.7059" height="16.7059" transform="rotate(180 83.5295 126.059)" fill="#737119"/>
<rect x="250.589" y="226.294" width="16.7059" height="16.7059" transform="rotate(180 250.589 226.294)" fill="#3C3F3C"/>
<rect x="83.5295" y="176.177" width="16.7059" height="16.7059" transform="rotate(180 83.5295 176.177)" fill="#3C3F3C"/>
<rect x="284" y="226.294" width="33.4118" height="33.4118" transform="rotate(180 284 226.294)" fill="#8B8D66"/>
<rect x="66.8234" y="159.47" width="16.7059" height="16.7059" transform="rotate(180 66.8234 159.47)" fill="#D7C8A6"/>
<rect x="300.706" y="209.588" width="16.7059" height="16.7059" transform="rotate(180 300.706 209.588)" fill="#D7C8A6"/>
<rect x="317.411" y="192.882" width="16.7059" height="16.7059" transform="rotate(180 317.411 192.882)" fill="#D7C8A6"/>
<rect x="66.8234" y="126.059" width="16.7059" height="16.7059" transform="rotate(180 66.8234 126.059)" fill="#737119"/>
<rect x="233.882" y="209.588" width="16.7059" height="16.7059" transform="rotate(180 233.882 209.588)" fill="#8B8D66"/>
<rect x="50.1177" y="159.47" width="16.7059" height="16.7059" transform="rotate(180 50.1177 159.47)" fill="#3C3F3C"/>
<rect x="350.824" y="192.882" width="33.4118" height="33.4118" transform="rotate(180 350.824 192.882)" fill="#8B8D66"/>
<rect x="217.176" y="259.706" width="33.4118" height="33.4118" transform="rotate(180 217.176 259.706)" fill="#8B8D66"/>
</g>
</svg>
