<svg width="518" height="100" viewBox="0 0 518 100" fill="none" xmlns="http://www.w3.org/2000/svg">
<g opacity="0.4">
<rect x="91.3235" y="19.7942" width="10.1471" height="10.1471" fill="#D7C8A6"/>
<rect x="81.1765" y="9.64709" width="10.1471" height="10.1471" fill="#737119"/>
<rect x="91.3235" y="9.64709" width="10.1471" height="10.1471" fill="#3C3F3C"/>
<rect x="81.1765" y="19.7942" width="10.1471" height="10.1471" fill="#3C3F3C"/>
<rect x="71.0294" y="19.7942" width="10.1471" height="10.1471" fill="#D7C8A6"/>
<rect x="60.8823" y="19.7942" width="10.1471" height="10.1471" fill="#8B8D66"/>
<rect y="-0.5" width="10.1471" height="10.1471" fill="#737119"/>
<rect x="101.471" y="-0.5" width="10.1471" height="10.1471" fill="#D7C8A6"/>
<rect x="91.3235" y="-0.5" width="10.1471" height="10.1471" fill="#737119"/>
<rect x="81.1765" y="-0.5" width="10.1471" height="10.1471" fill="#737119"/>
<rect x="50.7354" y="9.64709" width="10.1471" height="10.1471" fill="#8B8D66"/>
<rect x="50.7354" y="-0.5" width="10.1471" height="10.1471" fill="#737119"/>
<rect x="385.588" y="9.64709" width="10.1471" height="10.1471" fill="#D7C8A6"/>
<rect x="375.441" y="29.9412" width="10.1471" height="10.1471" fill="#D7C8A6"/>
<rect x="253.677" y="-10.6471" width="20.2941" height="20.2941" fill="#8B8D66"/>
<rect x="253.677" y="9.64709" width="20.2941" height="20.2941" fill="#8B8D66"/>
<rect x="273.971" y="9.64709" width="20.2941" height="20.2941" fill="#8B8D66"/>
<rect x="10.1471" y="-0.5" width="20.2941" height="20.2941" fill="#B4A885"/>
<rect x="30.4412" y="-0.5" width="20.2941" height="20.2941" fill="#8B8D66"/>
<rect x="60.8823" y="-0.5" width="20.2941" height="20.2941" fill="#8B8D66"/>
<rect x="324.706" y="-10.6471" width="20.2941" height="20.2941" fill="#8B8D66"/>
<rect x="294.265" y="-0.5" width="10.1471" height="10.1471" fill="#D7C8A6"/>
<rect x="314.559" y="-0.5" width="10.1471" height="10.1471" fill="#D7C8A6"/>
<rect x="345" y="-0.5" width="10.1471" height="10.1471" fill="#D7C8A6"/>
<rect x="284.118" y="-0.5" width="10.1471" height="10.1471" fill="#737119"/>
<rect x="355.147" y="-0.5" width="10.1471" height="10.1471" fill="#3C3F3C"/>
<rect x="304.412" y="9.64709" width="20.2941" height="20.2941" fill="#8B8D66"/>
<rect x="324.706" y="9.64709" width="20.2941" height="20.2941" fill="#8B8D66"/>
<rect x="345" y="9.64709" width="20.2941" height="20.2941" fill="#8B8D66"/>
<rect x="497.206" y="19.7942" width="10.1471" height="10.1471" transform="rotate(180 497.206 19.7942)" fill="#D7C8A6"/>
<rect x="507.353" y="9.64709" width="10.1471" height="10.1471" transform="rotate(180 507.353 9.64709)" fill="#D7C8A6"/>
<rect x="517.5" y="9.64709" width="10.1471" height="10.1471" transform="rotate(180 517.5 9.64709)" fill="#D7C8A6"/>
<rect x="405.882" y="9.64709" width="10.1471" height="10.1471" transform="rotate(180 405.882 9.64709)" fill="#737119"/>
<rect x="507.353" y="19.7942" width="10.1471" height="10.1471" transform="rotate(180 507.353 19.7942)" fill="#737119"/>
<rect x="497.206" y="29.9412" width="10.1471" height="10.1471" transform="rotate(180 497.206 29.9412)" fill="#3C3F3C"/>
<rect x="487.059" y="29.9412" width="10.1471" height="10.1471" transform="rotate(180 487.059 29.9412)" fill="#737119"/>
<rect x="487.059" y="19.7942" width="10.1471" height="10.1471" transform="rotate(180 487.059 19.7942)" fill="#737119"/>
<rect x="507.353" y="29.9412" width="10.1471" height="10.1471" transform="rotate(180 507.353 29.9412)" fill="#737119"/>
<rect x="385.588" y="9.64709" width="20.2941" height="20.2941" transform="rotate(180 385.588 9.64709)" fill="#8B8D66"/>
<rect x="385.588" y="29.9412" width="20.2941" height="20.2941" transform="rotate(180 385.588 29.9412)" fill="#8B8D66"/>
<rect x="345" y="40.0883" width="10.1471" height="10.1471" fill="#D7C8A6"/>
<rect x="345" y="29.9412" width="10.1471" height="10.1471" fill="#737119"/>
<rect x="355.147" y="60.3823" width="10.1471" height="10.1471" fill="#D7C8A6"/>
<rect x="365.294" y="50.2352" width="10.1471" height="10.1471" fill="#D7C8A6"/>
<rect x="345" y="50.2352" width="10.1471" height="10.1471" fill="#737119"/>
<rect x="385.588" y="60.3823" width="10.1471" height="10.1471" fill="#737119"/>
<rect x="284.118" y="90.8235" width="10.1471" height="10.1471" fill="#737119"/>
<rect x="355.147" y="50.2352" width="10.1471" height="10.1471" fill="#3C3F3C"/>
<rect x="375.441" y="80.6765" width="10.1471" height="10.1471" fill="#3C3F3C"/>
<rect x="345" y="60.3823" width="10.1471" height="10.1471" fill="#3C3F3C"/>
<rect x="284.118" y="80.6765" width="10.1471" height="10.1471" fill="#D7C8A6"/>
<rect x="273.971" y="80.6765" width="10.1471" height="10.1471" fill="#3C3F3C"/>
<rect x="324.706" y="50.2352" width="20.2941" height="20.2941" fill="#B4A885"/>
<rect x="294.265" y="80.6765" width="20.2941" height="20.2941" fill="#B4A885"/>
<rect x="324.706" y="29.9412" width="20.2941" height="20.2941" fill="#8B8D66"/>
<rect x="334.853" y="70.5294" width="10.1471" height="10.1471" fill="#D7C8A6"/>
<rect x="345" y="70.5294" width="10.1471" height="10.1471" fill="#D7C8A6"/>
<rect x="375.441" y="60.3823" width="10.1471" height="10.1471" fill="#3C3F3C"/>
<rect x="365.294" y="60.3823" width="10.1471" height="10.1471" fill="#3C3F3C"/>
<rect x="355.147" y="70.5294" width="20.2941" height="20.2941" fill="#8B8D66"/>
<rect x="345" y="80.6765" width="10.1471" height="10.1471" fill="#D7C8A6"/>
<rect x="355.147" y="90.8235" width="10.1471" height="10.1471" fill="#D7C8A6"/>
<rect x="385.588" y="70.5294" width="10.1471" height="10.1471" fill="#3C3F3C"/>
<rect x="334.853" y="80.6765" width="10.1471" height="10.1471" fill="#3C3F3C"/>
<rect x="314.559" y="50.2352" width="10.1471" height="10.1471" fill="#D7C8A6"/>
<rect x="324.706" y="90.8235" width="10.1471" height="10.1471" fill="#D7C8A6"/>
<rect x="314.559" y="90.8235" width="10.1471" height="10.1471" fill="#3C3F3C"/>
<rect x="334.853" y="90.8235" width="10.1471" height="10.1471" fill="#3C3F3C"/>
<rect x="345" y="90.8235" width="10.1471" height="10.1471" fill="#3C3F3C"/>
<rect x="355.147" y="29.9412" width="20.2941" height="20.2941" fill="#8B8D66"/>
<rect x="476.912" y="40.0883" width="10.1471" height="10.1471" transform="rotate(180 476.912 40.0883)" fill="#D7C8A6"/>
<rect x="446.471" y="60.3823" width="10.1471" height="10.1471" transform="rotate(180 446.471 60.3823)" fill="#D7C8A6"/>
<rect x="436.323" y="70.5294" width="10.1471" height="10.1471" transform="rotate(180 436.323 70.5294)" fill="#D7C8A6"/>
<rect x="446.471" y="50.2352" width="10.1471" height="10.1471" transform="rotate(180 446.471 50.2352)" fill="#737119"/>
<rect x="436.323" y="60.3823" width="10.1471" height="10.1471" transform="rotate(180 436.323 60.3823)" fill="#D7C8A6"/>
<rect x="405.882" y="50.2352" width="10.1471" height="10.1471" transform="rotate(180 405.882 50.2352)" fill="#D7C8A6"/>
<rect x="436.323" y="50.2352" width="10.1471" height="10.1471" transform="rotate(180 436.323 50.2352)" fill="#737119"/>
<rect x="476.912" y="29.9412" width="10.1471" height="10.1471" transform="rotate(180 476.912 29.9412)" fill="#737119"/>
<rect x="466.765" y="60.3823" width="10.1471" height="10.1471" transform="rotate(180 466.765 60.3823)" fill="#737119"/>
<rect x="446.471" y="70.5294" width="10.1471" height="10.1471" transform="rotate(180 446.471 70.5294)" fill="#3C3F3C"/>
<rect x="426.177" y="70.5294" width="10.1471" height="10.1471" transform="rotate(180 426.177 70.5294)" fill="#737119"/>
<rect x="416.029" y="70.5294" width="10.1471" height="10.1471" transform="rotate(180 416.029 70.5294)" fill="#3C3F3C"/>
<rect x="405.882" y="70.5294" width="10.1471" height="10.1471" transform="rotate(180 405.882 70.5294)" fill="#737119"/>
<rect x="405.882" y="80.6765" width="10.1471" height="10.1471" transform="rotate(180 405.882 80.6765)" fill="#737119"/>
<rect x="405.882" y="60.3823" width="10.1471" height="10.1471" transform="rotate(180 405.882 60.3823)" fill="#3C3F3C"/>
<rect x="456.618" y="60.3823" width="10.1471" height="10.1471" transform="rotate(180 456.618 60.3823)" fill="#3C3F3C"/>
<rect x="395.735" y="9.64709" width="10.1471" height="10.1471" transform="rotate(180 395.735 9.64709)" fill="#737119"/>
<rect x="395.735" y="29.9412" width="10.1471" height="10.1471" transform="rotate(180 395.735 29.9412)" fill="#D7C8A6"/>
<rect x="385.588" y="80.6765" width="10.1471" height="10.1471" transform="rotate(180 385.588 80.6765)" fill="#D7C8A6"/>
<rect x="405.882" y="40.0883" width="10.1471" height="10.1471" transform="rotate(180 405.882 40.0883)" fill="#737119"/>
<rect x="395.735" y="40.0883" width="10.1471" height="10.1471" transform="rotate(180 395.735 40.0883)" fill="#3C3F3C"/>
<rect x="405.882" y="29.9412" width="10.1471" height="10.1471" transform="rotate(180 405.882 29.9412)" fill="#3C3F3C"/>
<rect x="466.765" y="50.2352" width="20.2941" height="20.2941" transform="rotate(180 466.765 50.2352)" fill="#B4A885"/>
<rect x="426.177" y="40.0883" width="20.2941" height="20.2941" transform="rotate(180 426.177 40.0883)" fill="#B4A885"/>
<rect x="446.471" y="40.0883" width="20.2941" height="20.2941" transform="rotate(180 446.471 40.0883)" fill="#8B8D66"/>
<rect x="426.177" y="60.3823" width="20.2941" height="20.2941" transform="rotate(180 426.177 60.3823)" fill="#8B8D66"/>
<rect x="476.912" y="9.64709" width="10.1471" height="10.1471" transform="rotate(180 476.912 9.64709)" fill="#D7C8A6"/>
<rect x="497.206" y="9.64709" width="10.1471" height="10.1471" transform="rotate(180 497.206 9.64709)" fill="#737119"/>
<rect x="487.059" y="9.64709" width="10.1471" height="10.1471" transform="rotate(180 487.059 9.64709)" fill="#737119"/>
<rect x="466.765" y="9.64709" width="10.1471" height="10.1471" transform="rotate(180 466.765 9.64709)" fill="#737119"/>
<rect x="456.618" y="9.64709" width="10.1471" height="10.1471" transform="rotate(180 456.618 9.64709)" fill="#3C3F3C"/>
<rect x="446.471" y="19.7942" width="20.2941" height="20.2941" transform="rotate(180 446.471 19.7942)" fill="#B4A885"/>
<rect x="466.765" y="29.9412" width="20.2941" height="20.2941" transform="rotate(180 466.765 29.9412)" fill="#B4A885"/>
<rect x="426.177" y="19.7942" width="20.2941" height="20.2941" transform="rotate(180 426.177 19.7942)" fill="#B4A885"/>
<rect x="395.735" y="60.3823" width="20.2941" height="20.2941" transform="rotate(180 395.735 60.3823)" fill="#8B8D66"/>
<rect x="111.618" y="19.7942" width="10.1471" height="10.1471" transform="rotate(180 111.618 19.7942)" fill="#D7C8A6"/>
<rect x="243.529" y="29.9412" width="10.1471" height="10.1471" transform="rotate(180 243.529 29.9412)" fill="#D7C8A6"/>
<rect x="223.235" y="29.9412" width="10.1471" height="10.1471" transform="rotate(180 223.235 29.9412)" fill="#D7C8A6"/>
<rect x="213.088" y="40.0883" width="10.1471" height="10.1471" transform="rotate(180 213.088 40.0883)" fill="#D7C8A6"/>
<rect x="223.235" y="19.7942" width="10.1471" height="10.1471" transform="rotate(180 223.235 19.7942)" fill="#737119"/>
<rect x="213.088" y="29.9412" width="10.1471" height="10.1471" transform="rotate(180 213.088 29.9412)" fill="#D7C8A6"/>
<rect x="182.647" y="19.7942" width="10.1471" height="10.1471" transform="rotate(180 182.647 19.7942)" fill="#D7C8A6"/>
<rect x="213.088" y="19.7942" width="10.1471" height="10.1471" transform="rotate(180 213.088 19.7942)" fill="#737119"/>
<rect x="213.088" y="50.2352" width="10.1471" height="10.1471" transform="rotate(180 213.088 50.2352)" fill="#737119"/>
<rect x="233.382" y="40.0883" width="10.1471" height="10.1471" transform="rotate(180 233.382 40.0883)" fill="#737119"/>
<rect x="253.677" y="29.9412" width="10.1471" height="10.1471" transform="rotate(180 253.677 29.9412)" fill="#737119"/>
<rect x="233.382" y="50.2352" width="10.1471" height="10.1471" transform="rotate(180 233.382 50.2352)" fill="#3C3F3C"/>
<rect x="243.529" y="90.8235" width="10.1471" height="10.1471" transform="rotate(180 243.529 90.8235)" fill="#737119"/>
<rect x="243.529" y="100.971" width="10.1471" height="10.1471" transform="rotate(180 243.529 100.971)" fill="#3C3F3C"/>
<rect x="202.941" y="40.0883" width="10.1471" height="10.1471" transform="rotate(180 202.941 40.0883)" fill="#737119"/>
<rect x="192.794" y="40.0883" width="10.1471" height="10.1471" transform="rotate(180 192.794 40.0883)" fill="#3C3F3C"/>
<rect x="182.647" y="40.0883" width="10.1471" height="10.1471" transform="rotate(180 182.647 40.0883)" fill="#737119"/>
<rect x="182.647" y="29.9412" width="10.1471" height="10.1471" transform="rotate(180 182.647 29.9412)" fill="#3C3F3C"/>
<rect x="233.382" y="29.9412" width="10.1471" height="10.1471" transform="rotate(180 233.382 29.9412)" fill="#3C3F3C"/>
<rect x="233.382" y="100.971" width="10.1471" height="10.1471" transform="rotate(180 233.382 100.971)" fill="#737119"/>
<rect x="233.382" y="90.8235" width="10.1471" height="10.1471" transform="rotate(180 233.382 90.8235)" fill="#3C3F3C"/>
<rect x="233.382" y="80.6765" width="10.1471" height="10.1471" transform="rotate(180 233.382 80.6765)" fill="#3C3F3C"/>
<rect x="223.235" y="100.971" width="10.1471" height="10.1471" transform="rotate(180 223.235 100.971)" fill="#3C3F3C"/>
<rect x="182.647" y="9.64709" width="10.1471" height="10.1471" transform="rotate(180 182.647 9.64709)" fill="#737119"/>
<rect x="121.765" y="19.7942" width="10.1471" height="10.1471" transform="rotate(180 121.765 19.7942)" fill="#737119"/>
<rect x="172.5" y="9.64709" width="10.1471" height="10.1471" transform="rotate(180 172.5 9.64709)" fill="#3C3F3C"/>
<rect x="142.059" y="9.64709" width="10.1471" height="10.1471" transform="rotate(180 142.059 9.64709)" fill="#D7C8A6"/>
<rect x="243.529" y="19.7942" width="20.2941" height="20.2941" transform="rotate(180 243.529 19.7942)" fill="#B4A885"/>
<rect x="273.971" y="50.2352" width="20.2941" height="20.2941" transform="rotate(180 273.971 50.2352)" fill="#B4A885"/>
<rect x="202.941" y="9.64709" width="20.2941" height="20.2941" transform="rotate(180 202.941 9.64709)" fill="#B4A885"/>
<rect x="223.235" y="50.2352" width="10.1471" height="10.1471" transform="rotate(180 223.235 50.2352)" fill="#B4A885"/>
<rect x="304.412" y="19.7942" width="10.1471" height="10.1471" transform="rotate(180 304.412 19.7942)" fill="#B4A885"/>
<rect x="314.559" y="9.64709" width="10.1471" height="10.1471" transform="rotate(180 314.559 9.64709)" fill="#B4A885"/>
<rect x="405.882" y="19.7942" width="10.1471" height="10.1471" transform="rotate(180 405.882 19.7942)" fill="#B4A885"/>
<rect x="476.912" y="19.7942" width="10.1471" height="10.1471" transform="rotate(180 476.912 19.7942)" fill="#B4A885"/>
<rect x="223.235" y="9.64709" width="20.2941" height="20.2941" transform="rotate(180 223.235 9.64709)" fill="#8B8D66"/>
<rect x="273.971" y="40.0883" width="10.1471" height="10.1471" fill="#D7C8A6"/>
<rect x="294.265" y="19.7942" width="10.1471" height="10.1471" fill="#737119"/>
<rect x="304.412" y="29.9412" width="20.2941" height="20.2941" fill="#B4A885"/>
<rect x="284.118" y="50.2352" width="20.2941" height="20.2941" fill="#B4A885"/>
<rect x="314.559" y="70.5294" width="20.2941" height="20.2941" fill="#B4A885"/>
<rect x="284.118" y="29.9412" width="20.2941" height="20.2941" fill="#8B8D66"/>
<rect x="304.412" y="50.2352" width="10.1471" height="10.1471" fill="#8B8D66"/>
<rect x="314.559" y="60.3823" width="10.1471" height="10.1471" fill="#8B8D66"/>
<rect x="273.971" y="-0.5" width="10.1471" height="10.1471" fill="#8B8D66"/>
<rect x="253.677" y="50.2352" width="10.1471" height="10.1471" fill="#8B8D66"/>
<rect x="273.971" y="29.9412" width="10.1471" height="10.1471" fill="#8B8D66"/>
<rect x="243.529" y="9.64709" width="10.1471" height="10.1471" fill="#8B8D66"/>
<rect x="213.088" y="29.9412" width="10.1471" height="10.1471" fill="#8B8D66"/>
<rect x="263.823" y="50.2352" width="20.2941" height="20.2941" fill="#8B8D66"/>
<rect x="273.971" y="70.5294" width="10.1471" height="10.1471" fill="#D7C8A6"/>
<rect x="263.823" y="70.5294" width="10.1471" height="10.1471" fill="#737119"/>
<rect x="294.265" y="70.5294" width="10.1471" height="10.1471" fill="#D7C8A6"/>
<rect x="284.118" y="70.5294" width="10.1471" height="10.1471" fill="#737119"/>
<rect x="304.412" y="70.5294" width="10.1471" height="10.1471" fill="#3C3F3C"/>
<rect x="304.412" y="60.3823" width="10.1471" height="10.1471" fill="#D7C8A6"/>
<rect x="263.823" y="80.6765" width="10.1471" height="10.1471" transform="rotate(180 263.823 80.6765)" fill="#D7C8A6"/>
<rect x="202.941" y="90.8235" width="10.1471" height="10.1471" fill="#737119"/>
<rect x="202.941" y="100.971" width="10.1471" height="10.1471" transform="rotate(180 202.941 100.971)" fill="#D7C8A6"/>
<rect x="253.677" y="90.8235" width="10.1471" height="10.1471" transform="rotate(180 253.677 90.8235)" fill="#D7C8A6"/>
<rect x="263.823" y="70.5294" width="10.1471" height="10.1471" transform="rotate(180 263.823 70.5294)" fill="#737119"/>
<rect x="243.529" y="60.3823" width="10.1471" height="10.1471" transform="rotate(180 243.529 60.3823)" fill="#737119"/>
<rect x="253.677" y="9.64709" width="10.1471" height="10.1471" transform="rotate(180 253.677 9.64709)" fill="#737119"/>
<rect x="253.677" y="60.3823" width="10.1471" height="10.1471" transform="rotate(180 253.677 60.3823)" fill="#3C3F3C"/>
<rect x="253.677" y="80.6765" width="20.2941" height="20.2941" transform="rotate(180 253.677 80.6765)" fill="#B4A885"/>
<rect x="253.677" y="50.2352" width="20.2941" height="20.2941" transform="rotate(180 253.677 50.2352)" fill="#8B8D66"/>
<rect x="233.382" y="70.5294" width="20.2941" height="20.2941" transform="rotate(180 233.382 70.5294)" fill="#8B8D66"/>
<rect x="202.941" y="29.9412" width="20.2941" height="20.2941" transform="rotate(180 202.941 29.9412)" fill="#8B8D66"/>
<rect x="131.912" y="9.64709" width="20.2941" height="20.2941" transform="rotate(180 131.912 9.64709)" fill="#8B8D66"/>
</g>
</svg>
